<svg width="224" height="253" viewBox="0 0 224 253" fill="none" xmlns="http://www.w3.org/2000/svg">
<g filter="url(#filter0_d_404_104789)">
<rect x="30" y="58.54" width="164" height="164" rx="12" fill="white"/>
</g>
<path fill-rule="evenodd" clip-rule="evenodd" d="M164.679 204.5V196.696H160.776V204.5H164.679ZM82.7352 204.5H55.4199V177.185H82.7352V204.5ZM94.4402 196.696V188.892H86.6384V192.793H90.5393V196.696H86.6362V204.5H94.4402V200.597H98.3434V196.698H94.4402V196.696ZM121.756 149.872V153.773H117.852V157.676H121.756V169.381H125.656V173.284H121.756V177.185H133.461V192.793H125.659V184.991H117.852V188.892H121.756V192.793H117.852V200.599H121.756V204.5H125.656V200.597H133.461V204.5H141.265V200.597H145.168V196.698H137.364V188.894H141.265V192.795H149.069V200.601H145.168V204.5H156.873V200.599H152.972V196.696H160.776V192.793H164.679V184.991H168.58V181.088H164.677V177.182H168.58V173.282H160.776V169.381H156.873V177.185H160.776V181.088H152.972V165.48H149.069V169.381H145.168V165.48H141.262V161.577H145.166V157.676H141.262V153.773H137.361V149.872H133.461V161.577H137.364V169.381H133.461V165.48H125.659V157.676H129.56V153.773H125.656V149.872H121.756ZM110.048 196.696H106.147V200.597H110.048V196.698V196.696ZM59.3231 181.088V200.597H78.8321V181.088H59.3231ZM74.9312 196.696H63.2218V184.989H74.929V196.696H74.9312ZM168.58 192.793H164.677V196.696H168.58V192.793ZM106.147 196.698V188.894H102.244V192.795H98.3434V196.698H106.145H106.147ZM113.949 196.698V188.894H110.048V196.698H113.951H113.949ZM152.972 184.991V188.894H160.776V184.991H152.972ZM98.3412 188.892V177.182H94.438V188.89H98.3412V188.892ZM110.046 188.892V177.182H106.145V181.086H102.242V184.987H106.145V188.89H110.046V188.892ZM137.361 173.284V184.989H149.066V173.284H137.361ZM98.3412 161.577H90.5393V169.381H86.6362V181.088H90.5393V177.182H94.4402V169.381H98.3434V173.282H102.244V177.182H106.147V173.282H110.048V169.381H106.147V165.48H98.3412V161.577ZM145.166 177.185H141.262V181.088H145.166V177.182V177.185ZM113.949 173.284H110.046V177.185H113.949V173.284ZM82.7352 169.381H74.9312V173.284H82.733V169.381H82.7352ZM59.3208 157.676V153.773H55.4199V161.577H59.3208V165.48H55.4199V169.381H59.3208V173.284H67.1271V169.381H63.2218V165.48H67.1249V161.577H63.2218V157.676H59.3208ZM168.58 169.381V157.676H164.677V161.577H160.778V169.381H168.58ZM71.028 165.48H67.1271V169.381H71.028V165.48ZM149.069 161.577H145.168V165.48H149.069V161.577ZM63.224 122.556H55.4199V142.068H59.3231V138.164H63.2218V134.263H59.3208V130.36H63.224V134.263H67.1271V138.164H71.028V142.068H67.1271V145.968H63.2218V149.872H74.929V145.968H71.028V142.068H86.6362V145.968H78.8343V149.872H82.7352V153.773H74.9312V157.676H71.028V165.478H82.7352V161.579H74.9312V157.678H82.733V161.579H90.5393V145.971H102.244V153.775H94.4424V157.678H106.147V153.775H113.949V149.874H106.147V142.07H110.048V134.261H106.147V138.162H102.244V142.065H90.5393V138.162H74.9312V134.261H71.028V122.554H67.1271V126.457H63.2218V122.554L63.224 122.556ZM110.048 161.579V157.678H106.147V165.48H113.949V161.579H110.048ZM156.873 157.678H152.972V161.579H156.873V157.678ZM71.0303 153.775H63.2218V157.678H71.0258V153.775H71.0303ZM168.58 145.971H152.972V149.872H149.069V153.773H156.873V149.872H160.776V157.673H164.679V149.872H168.58V145.968V145.971ZM63.224 149.869H59.3208V153.77H63.224V149.869ZM121.756 142.065H117.852V145.966H121.756V142.065ZM63.224 142.065H59.3208V145.966H63.224V142.065ZM113.951 142.065H110.048V145.966H113.951V142.065ZM117.852 142.065V134.261H113.951V142.063H117.852V142.065ZM125.656 138.162H121.756V142.065H125.656V138.162ZM133.461 130.36V138.162H137.364V130.36H133.461ZM125.659 126.457V118.653H121.756V134.261H125.656V130.358H129.56V126.459H125.656L125.659 126.457ZM86.6362 122.554H78.8343V126.457H74.929V130.358H78.8299V126.459H82.733V130.36H78.8299V134.263H82.733V130.36H86.634V134.263H98.3412V130.36H102.242V126.459H98.3412V122.556H94.438V130.36H90.5393V126.459H86.6362V122.556V122.554ZM168.58 126.459H164.677V130.36H168.58V126.459ZM113.951 130.36V122.558H110.048V130.36H113.951ZM164.677 122.558H156.875V126.459H164.677V122.556V122.558ZM90.5393 110.849V106.948H86.6362V122.556H94.4402V118.658H90.5393V114.754H94.4402V110.851H90.5393V110.849ZM137.364 122.554V114.752H133.461V122.554H137.364ZM106.147 122.554V114.752H102.244V122.554H106.147ZM113.949 114.752H110.048V118.653H113.951V114.75L113.949 114.752ZM98.3434 114.752H94.4402V118.653H98.3434V114.75V114.752ZM129.56 114.752H125.656V118.653H129.56V114.75V114.752ZM121.756 114.752H117.852V118.653H121.756V114.75V114.752ZM168.58 118.653H141.265V91.34H168.58V118.655V118.653ZM82.7352 118.653H55.4199V91.34H82.7352V118.655V118.653ZM117.855 103.045V91.34H110.048V95.2432H113.951V99.1419H110.048V106.946H106.147V110.849H113.949V114.75H117.852V106.948H113.951V103.045H117.852H117.855ZM102.244 110.847H98.3434V114.75H102.244V110.851V110.847ZM59.3231 95.2454V114.754H78.8321V95.2432H59.3231V95.2454ZM145.166 95.2454V114.754H164.679V95.2432H145.168L145.166 95.2454ZM133.461 110.851H129.56V114.752H133.461V110.851ZM74.9312 110.851H63.2218V99.1419H74.929V110.849L74.9312 110.851ZM137.364 106.948H133.461V110.851H137.364V106.948ZM160.776 110.851H149.069V99.1419H160.776V110.849V110.851ZM106.147 103.047V91.34H102.244V95.2432H98.3434V99.1419H90.5393V95.2432H86.6362V103.045H90.5393V106.948H102.244V103.047H106.147ZM94.4402 91.34H90.5393V95.2432H94.4402V91.34ZM156.873 142.068V138.164H160.776V142.068H168.58V138.164H164.679V130.363H156.873V126.459H152.972V134.261H149.069V130.36H145.168V126.459H152.97V122.556H141.265V126.459H133.463V130.36H129.56V145.968H125.656V149.872H129.56V145.968H137.361V149.872H149.069V145.968H141.267V142.068H145.168V138.164H152.97V134.263H156.873V138.164H152.972V142.068H156.873ZM125.659 114.752V110.851H129.562V103.047H137.364V95.241H133.461V99.1441H121.756V103.047H117.852V106.948H121.756V114.752H125.656H125.659Z" fill="black"/>
<g filter="url(#filter1_d_404_104789)">
<rect x="82.48" y="20" width="59.86" height="59.86" rx="10" fill="white"/>
<path d="M111.982 25.1309C105.519 25.1309 99.3197 27.6986 94.7491 32.2691C90.1786 36.8397 87.6108 43.0387 87.6108 49.5024C87.6108 55.9662 90.1786 62.1652 94.7491 66.7357C99.3197 71.3063 105.519 73.874 111.982 73.874C118.446 73.874 124.645 71.3063 129.216 66.7357C133.786 62.1652 136.354 55.9662 136.354 49.5024C136.354 43.0387 133.786 36.8397 129.216 32.2691C124.645 27.6986 118.446 25.1309 111.982 25.1309Z" fill="white"/>
<path d="M125.276 32.7847C122.255 40.5393 114.4 39.5322 108.861 39.7337L107.451 44.9705C114.4 39.4315 123.464 44.9705 122.557 53.4301C122.302 55.8944 121.296 58.2209 119.675 60.0943C118.054 61.9677 115.896 63.2976 113.493 63.9038C108.76 65.0116 103.624 63.2996 101.308 58.5662L100.502 56.5521L105.437 55.2428C105.437 55.545 105.638 55.7464 105.739 56.0485C109.062 61.3861 115.81 58.667 116.515 53.128C117.32 47.589 109.465 44.5677 105.84 51.1138L101.408 49.301L103.02 42.6542L104.128 38.223L104.43 37.2159C107.25 29.8642 112.788 29.1592 117.723 29.1592H118.327C113.229 27.6473 107.75 28.0925 102.963 30.4077C98.1751 32.7229 94.4239 36.7414 92.4433 41.6766C90.4627 46.6119 90.3951 52.1086 92.2539 57.0911C94.1127 62.0735 97.7639 66.1829 102.493 68.6151C107.222 71.0472 112.689 71.6269 117.823 70.2407C122.957 68.8546 127.389 65.6024 130.251 61.1206C133.113 56.6388 134.2 51.2502 133.299 46.0093C132.397 40.7684 129.572 36.0525 125.377 32.7847H125.276Z" fill="#E52322"/>
<path d="M123.363 31.3748C123.059 32.5125 122.49 33.562 121.702 34.4373C120.914 35.3125 119.93 35.9887 118.831 36.4103C116.514 37.4174 113.695 37.4174 110.975 37.4174H106.746C109.163 31.8784 113.292 31.3748 117.723 31.3748C119.601 31.2749 121.482 31.2413 123.363 31.2741V31.3748Z" fill="#00923A"/>
</g>
<defs>
<filter id="filter0_d_404_104789" x="0" y="28.54" width="224" height="224" filterUnits="userSpaceOnUse" color-interpolation-filters="sRGB">
<feFlood flood-opacity="0" result="BackgroundImageFix"/>
<feColorMatrix in="SourceAlpha" type="matrix" values="0 0 0 0 0 0 0 0 0 0 0 0 0 0 0 0 0 0 127 0" result="hardAlpha"/>
<feOffset/>
<feGaussianBlur stdDeviation="15"/>
<feComposite in2="hardAlpha" operator="out"/>
<feColorMatrix type="matrix" values="0 0 0 0 0 0 0 0 0 0 0 0 0 0 0 0 0 0 0.25 0"/>
<feBlend mode="normal" in2="BackgroundImageFix" result="effect1_dropShadow_404_104789"/>
<feBlend mode="normal" in="SourceGraphic" in2="effect1_dropShadow_404_104789" result="shape"/>
</filter>
<filter id="filter1_d_404_104789" x="62.48" y="0" width="99.8599" height="99.86" filterUnits="userSpaceOnUse" color-interpolation-filters="sRGB">
<feFlood flood-opacity="0" result="BackgroundImageFix"/>
<feColorMatrix in="SourceAlpha" type="matrix" values="0 0 0 0 0 0 0 0 0 0 0 0 0 0 0 0 0 0 127 0" result="hardAlpha"/>
<feOffset/>
<feGaussianBlur stdDeviation="10"/>
<feComposite in2="hardAlpha" operator="out"/>
<feColorMatrix type="matrix" values="0 0 0 0 0 0 0 0 0 0 0 0 0 0 0 0 0 0 0.25 0"/>
<feBlend mode="normal" in2="BackgroundImageFix" result="effect1_dropShadow_404_104789"/>
<feBlend mode="normal" in="SourceGraphic" in2="effect1_dropShadow_404_104789" result="shape"/>
</filter>
</defs>
</svg>
