<svg width="23" height="31" viewBox="0 0 23 31" fill="none" xmlns="http://www.w3.org/2000/svg">
<path d="M6.75 4.9052V21.1052C6.75 21.8213 7.00022 22.508 7.44562 23.0144C7.89102 23.5207 8.49511 23.8052 9.125 23.8052H18.625C19.2549 23.8052 19.859 23.5207 20.3044 23.0144C20.7498 22.508 21 21.8213 21 21.1052V9.28189C20.9999 8.9222 20.9367 8.56614 20.8139 8.23462C20.6912 7.90311 20.5114 7.60282 20.2851 7.35139L16.3486 2.9747C15.9049 2.48149 15.309 2.20529 14.6884 2.2052H9.125C8.49511 2.2052 7.89102 2.48966 7.44562 2.99601C7.00022 3.50236 6.75 4.18911 6.75 4.9052V4.9052Z" stroke="white" stroke-width="3" stroke-linecap="round" stroke-linejoin="round"/>
<path d="M16.25 23.8052V26.5052C16.25 27.2213 15.9998 27.908 15.5544 28.4144C15.109 28.9207 14.5049 29.2052 13.875 29.2052H4.375C3.74511 29.2052 3.14102 28.9207 2.69562 28.4144C2.25022 27.908 2 27.2213 2 26.5052V11.6552C2 10.9391 2.25022 10.2524 2.69562 9.74604C3.14102 9.23969 3.74511 8.95523 4.375 8.95523H6.74999" stroke="white" stroke-width="3" stroke-linecap="round" stroke-linejoin="round"/>
</svg>
