<svg width="168" height="105" viewBox="0 0 168 105" fill="none" xmlns="http://www.w3.org/2000/svg">
<g clip-path="url(#clip0_404_65271)">
<path d="M118.957 31.6166C118.969 31.5488 118.979 31.4758 118.996 31.4061C118.984 31.4739 118.969 31.5488 118.957 31.6166Z" fill="#A5AC33"/>
<path d="M118.9 35.7694C118.833 35.3874 118.792 34.9964 118.769 34.605C118.611 34.7464 118.486 34.9289 118.406 35.1764C117.709 34.9198 117.007 34.665 116.31 34.4084C115.973 33.4365 116.956 33.7853 117.282 33.4814C117.438 33.3349 117.778 33.3446 117.808 33.0736C117.843 32.7142 117.51 32.6385 117.261 32.5336C115.575 31.8434 115.492 33.2906 114.941 34.1877C114.363 35.1113 114.516 35.6374 115.6 35.8526C115.63 35.9405 115.66 36.0284 115.691 36.1163C115.633 36.2404 115.574 36.3593 115.517 36.4834C114.968 37.559 115.47 37.9178 116.515 37.95C116.974 37.9645 117.456 37.8036 117.894 38.063C118.052 38.3844 118.009 38.874 118.471 38.9458C118.95 39.0172 119.133 38.5893 119.251 38.2475C119.323 38.0313 119.426 37.8683 119.549 37.7275C119.26 37.1153 119.038 36.457 118.913 35.7709L118.9 35.7694Z" fill="#A5AC33"/>
<path d="M118.755 33.6085C118.756 33.5616 118.758 33.5148 118.759 33.468C118.758 33.5148 118.756 33.5616 118.755 33.6085Z" fill="#A5AC33"/>
<path d="M119.78 38.1915C119.764 38.1623 119.748 38.1331 119.732 38.1039C119.743 38.1349 119.764 38.1623 119.78 38.1915Z" fill="#A5AC33"/>
<path d="M126.284 41.9722C126.284 41.9722 126.313 41.9683 126.325 41.9698C126.314 41.9735 126.297 41.9738 126.284 41.9722Z" fill="#A5AC33"/>
<path d="M120.249 38.9323C120.228 38.9049 120.212 38.8757 120.191 38.8483C120.212 38.8757 120.228 38.9049 120.249 38.9323Z" fill="#A5AC33"/>
<path d="M111.203 35.8405C111.497 36.1266 111.914 36.0171 112.156 35.6263C112.437 35.1759 112.032 34.8241 111.91 34.4726C111.769 34.0642 111.35 34.354 111.053 34.4337C110.386 34.6065 110.116 35.1399 109.759 35.8655C110.358 35.8031 110.748 35.3959 111.198 35.8423L111.203 35.8405Z" fill="#A5AC33"/>
<path d="M132.861 49.016C132.399 48.8229 132.027 48.4133 132.308 47.7601C132.488 47.3565 132.19 47.0947 131.815 47.1203C131.354 47.1526 130.888 47.2733 130.463 47.4437C130.287 47.516 130.434 47.888 130.577 47.8907C131.709 47.9386 131.51 48.8643 131.762 49.5413C131.394 49.4835 131.071 49.4042 130.75 49.382C129.967 49.3349 128.943 49.4809 128.721 50.0846C128.526 50.615 128.999 50.7177 129.458 50.8658C128.416 51.3016 127.372 51.7323 126.329 52.163C128.751 51.1623 131.172 50.1565 133.571 49.0886C133.473 49.1285 133.382 49.1717 133.285 49.2167C133.165 49.1425 133.024 49.0756 132.858 49.0057L132.861 49.016Z" fill="#A5AC33"/>
<path d="M109.983 31.7878C110.164 31.7136 110.341 31.5944 110.263 31.3669C110.198 31.1808 110.009 31.061 109.816 31.151C109.581 31.2556 109.508 31.4892 109.504 31.751C109.641 31.9758 109.823 31.8547 109.983 31.7878Z" fill="#A5AC33"/>
<path d="M114.474 32.2768C114.635 32.0244 114.799 31.7823 114.533 31.5269C114.353 31.3462 114.072 31.2696 113.876 31.4187C112.869 32.1781 111.47 32.3323 110.628 33.4287C112.456 33.8668 113.709 33.4793 114.476 32.282L114.474 32.2768Z" fill="#A5AC33"/>
<path d="M113.423 37.2894C114.21 37.3988 114.527 37.0345 114.688 36.255C113.946 36.3615 113.567 36.6489 113.423 37.2894Z" fill="#A5AC33"/>
<path d="M115.487 39.2784C115.625 39.7978 116.08 39.5246 116.502 39.448C116.633 39.2463 117.216 39.3628 117.078 38.8954C116.94 38.428 116.486 38.5503 116.126 38.6692C115.82 38.775 115.383 38.8919 115.482 39.2802L115.487 39.2784Z" fill="#A5AC33"/>
<path d="M110.996 31.2172C111.8 31.3558 112.469 30.7652 113.196 31.0751C112.32 30.2668 112.079 30.2866 110.996 31.2172Z" fill="#A5AC33"/>
<path d="M118.818 32.614C118.825 32.548 118.833 32.4872 118.84 32.4212C118.831 32.4821 118.825 32.548 118.818 32.614Z" fill="#A5AC33"/>
<path d="M92.9124 29.1351C92.9124 29.1351 92.93 29.1348 92.9424 29.1363C92.9318 29.14 92.9248 29.1366 92.9124 29.1351Z" fill="#A5AC33"/>
<path d="M90.7224 29.187C90.7224 29.187 90.7629 29.1845 90.7805 29.1842C90.7629 29.1845 90.74 29.1866 90.7224 29.187Z" fill="#A5AC33"/>
<path d="M15.9329 89.9153C16.0367 89.5841 16.1494 89.2614 16.2673 88.9369C16.1494 89.2614 16.0385 89.5893 15.9329 89.9153Z" fill="#A5AC33"/>
<path d="M33.2424 56.1125C34.149 54.8261 35.0893 53.5686 36.0614 52.3348C35.084 53.5704 34.149 54.8261 33.2424 56.1125Z" fill="#A5AC33"/>
<path d="M88.4935 29.2117C88.5339 29.2093 88.5762 29.212 88.6167 29.2096C88.5762 29.212 88.5339 29.2093 88.4935 29.2117Z" fill="#A5AC33"/>
<path d="M135.184 48.3742C134.818 48.5469 134.446 48.7163 134.079 48.8839C134.446 48.7163 134.818 48.5469 135.184 48.3742Z" fill="#A5AC33"/>
<path d="M82.0495 29.2542C83.5355 29.2319 85.0233 29.2321 86.5093 29.2271C85.0233 29.2321 83.5355 29.2319 82.0495 29.2542Z" fill="#A5AC33"/>
<path d="M121.137 39.9622C121.137 39.9622 121.102 39.9281 121.082 39.9059C121.1 39.923 121.118 39.94 121.137 39.9622Z" fill="#A5AC33"/>
<path d="M72.2214 81.1051C71.6756 81.4214 71.1227 81.7344 70.5751 82.0455C71.1227 81.7344 71.6756 81.4214 72.2214 81.1051Z" fill="#A5AC33"/>
<path d="M86.4866 44.136C86.1772 44.2315 85.875 44.3477 85.5745 44.4517C84.9141 44.744 84.2696 44.724 83.549 44.6377C82.7614 44.5456 81.8597 43.8678 81.1095 44.7874C80.3801 45.341 79.656 45.8927 78.9266 46.4462C78.3424 46.8221 77.7593 47.406 78.1868 47.9759C78.4831 48.3712 79.1952 47.87 79.6511 47.5327C79.8019 47.4226 79.9651 47.3313 80.1248 47.2298C80.4885 47.1038 80.8523 46.9779 81.2108 46.8538C82.6768 46.109 83.9429 44.8718 85.7623 44.9772C86.1565 44.9391 86.5525 44.9063 86.9467 44.8682C87.08 44.4516 87.608 43.7941 86.4901 44.129L86.4866 44.136Z" fill="#A5AC33"/>
<path d="M86.9416 44.8701L86.9381 44.8771L86.9434 44.8752L86.9416 44.8701Z" fill="#A5AC33"/>
<path d="M80.21 53.3598C80.4444 53.3887 80.5738 53.2339 80.5409 53.0195C80.4718 52.6324 80.1814 52.6461 79.8789 52.7103C79.8681 52.9861 79.796 53.3063 80.21 53.3598Z" fill="#A5AC33"/>
<path d="M67.9283 83.5407C67.4631 83.8001 66.9998 84.0647 66.5381 84.3171C67.0032 84.0577 67.4684 83.7983 67.9283 83.5407Z" fill="#A5AC33"/>
<path d="M15.8303 97.4129C15.7749 97.27 15.7178 97.1219 15.6694 96.965C15.7213 97.1149 15.7732 97.2648 15.8303 97.4129Z" fill="#A5AC33"/>
<path d="M66.3928 57.2919C66.4294 58.1823 66.5399 58.7404 67.3329 58.848C67.3838 58.1935 67.0189 57.8046 66.3928 57.2919Z" fill="#A5AC33"/>
<path d="M71.7865 38.1675C71.2823 38.3652 70.9127 38.7131 70.7555 39.248C71.0492 39.8237 71.5204 39.3769 71.8886 39.4174C72.477 39.48 72.6138 39.0737 72.5108 38.5883C72.4313 38.2222 72.1853 38.0063 71.7847 38.1623L71.7865 38.1675Z" fill="#A5AC33"/>
<path d="M74.9151 41.901C74.5184 42.1194 74.4786 42.55 74.5495 42.9596C74.5914 43.1999 74.872 43.3285 75.1018 43.1737C75.4807 42.921 75.6599 42.5347 75.536 42.0914C75.4659 41.8378 75.2383 41.7602 74.9151 41.901Z" fill="#A5AC33"/>
<path d="M56.8345 39.0942C56.1355 39.1046 55.6632 39.0192 55.3984 39.5335C55.3705 39.5894 55.5178 39.7932 55.6273 39.8537C56.2436 40.1671 56.4522 39.6955 56.8362 39.0994L56.8345 39.0942Z" fill="#A5AC33"/>
<path d="M60.8269 39.5589C60.8388 39.4911 61.0798 39.454 61.2169 39.4065C61.6265 39.6005 62.0645 39.5357 61.9192 39.0477C61.7076 38.3683 61.1649 38.9151 60.7601 38.9568C59.9487 39.3245 58.9522 39.3279 58.4135 40.2959C59.1214 39.6804 60.4598 41.6195 60.8269 39.5589Z" fill="#A5AC33"/>
<path d="M73.5089 37.9071C73.1669 38.147 72.8033 38.6318 73.138 38.9675C73.7878 39.6167 74.4089 38.9038 75.3992 38.7289C74.5587 38.2962 74.3753 37.3061 73.5141 37.9052L73.5089 37.9071Z" fill="#A5AC33"/>
<path d="M69.2409 38.8635C69.9898 38.3321 71.3021 38.1326 71.0427 36.752C70.497 36.7788 69.9138 36.7143 69.3917 36.8603C68.6902 37.0511 67.8948 37.4306 67.9115 38.2295C67.9294 38.9122 68.934 39.0855 69.2356 38.8653L69.2409 38.8635Z" fill="#A5AC33"/>
<path d="M72.3956 47.2771C72.0124 47.3982 72.0509 47.6628 72.0634 47.6989C72.3521 48.6353 72.7428 48.6042 73.182 48.4232C73.4753 48.2985 73.6873 48.1094 73.4339 47.8035C73.1768 47.4872 72.8948 47.1159 72.3956 47.2771Z" fill="#A5AC33"/>
<path d="M87.0739 31.6425C87.3919 31.5209 87.7574 31.4001 87.7676 31.0203C87.7799 30.3735 87.1835 30.7825 86.9026 30.6192C86.6853 30.4861 86.5314 30.3483 86.5387 30.0795C86.5554 29.599 86.281 29.3351 85.8432 29.4519C85.1857 29.6332 85.5511 30.1087 85.6237 30.5062C85.7093 30.7023 85.774 30.9405 85.8983 31.129C86.1752 31.5194 86.4993 31.8588 87.0739 31.6425Z" fill="#A5AC33"/>
<path d="M87.9016 33.9147C87.4213 34.301 87.2977 34.8648 87.4416 35.417C87.5405 35.788 87.9572 35.9853 88.3664 35.8032C88.9091 35.5632 89.1429 35.1812 88.8754 34.5618C88.6845 34.1126 88.4418 33.8551 87.8981 33.9217L87.9016 33.9147Z" fill="#A5AC33"/>
<path d="M61.6041 46.9546C61.3104 47.01 61.2941 47.253 61.3131 47.4953C61.367 47.6851 61.4543 47.8691 61.6898 47.7991C61.9535 47.7252 62.0491 47.5068 62.0037 47.2563C61.9673 47.0489 61.8099 46.9181 61.6041 46.9546Z" fill="#A5AC33"/>
<path d="M68.8425 40.9697C68.2957 41.1127 67.8356 41.3356 67.9468 42.015C67.9704 42.1515 68.0223 42.2841 68.0635 42.4203C68.2428 42.3583 68.422 42.2962 68.5977 42.2238C69.0807 42.0161 69.371 41.6609 69.3064 41.1333C69.277 40.9119 69.0253 40.918 68.8407 40.9645L68.8425 40.9697Z" fill="#A5AC33"/>
<path d="M92.5085 32.1637C92.417 32.1722 92.3293 32.2257 92.2397 32.2568L92.2361 32.2464C92.0568 32.3085 91.8652 32.3517 91.6984 32.4326C91.4034 32.5868 90.7851 32.2161 90.8096 32.8155C90.8374 33.3905 91.4317 33.2312 91.828 33.2676C92.0606 33.2913 92.3054 33.2992 92.5322 33.2554C93.2675 33.1282 93.1156 32.0925 93.8614 31.9617C93.8222 31.8826 93.8057 31.7667 93.7457 31.7296C93.1734 31.4067 92.9538 32.1196 92.5015 32.1603L92.5085 32.1637Z" fill="#A5AC33"/>
<path d="M76.9241 40.3199C76.7525 40.4893 76.7346 40.7617 76.9908 40.922C77.6552 41.3404 78.2452 41.0493 78.8112 40.5697C78.139 40.6403 77.642 39.614 76.9241 40.3199Z" fill="#A5AC33"/>
<path d="M64.3906 43.0318C64.7597 42.9214 64.7652 42.6474 64.6509 42.3512C64.5258 42.024 64.2737 41.9608 63.9574 42.0703C63.6359 42.1989 63.4856 42.413 63.667 42.7323C63.8199 43.0036 64.0847 43.1203 64.3958 43.03L64.3906 43.0318Z" fill="#A5AC33"/>
<path d="M62.6377 64.3172C62.8221 64.236 62.9658 64.1226 62.9135 63.9034C62.8685 63.7221 62.7617 63.5159 62.5388 63.6394C62.4036 63.7094 62.2797 63.9143 62.2665 64.0637C62.2482 64.2668 62.4109 64.3784 62.6377 64.3172Z" fill="#A5AC33"/>
<path d="M83.2272 66.1687C83.5903 65.9214 83.6058 65.5398 83.4787 65.1727C83.4143 64.9866 83.2186 64.9328 82.9883 65.001C82.7065 65.2954 82.7086 65.6767 82.774 66.0361C82.8158 66.2764 83.0693 66.2755 83.2272 66.1687Z" fill="#A5AC33"/>
<path d="M41.7035 49.3107C42.0682 49.0339 41.82 48.7262 41.7286 48.4452C41.6319 48.1487 41.5117 47.7504 41.0656 47.9626C40.646 48.1658 40.8645 48.5243 40.97 48.812C41.081 49.1325 41.2796 49.3822 41.7035 49.3107Z" fill="#A5AC33"/>
<path d="M73.9082 71.2935C73.9698 71.6079 74.1378 71.7523 74.4805 71.6337C74.8601 71.5023 75.1846 71.28 75.0378 70.8388C74.925 70.5131 74.5719 70.3458 74.2552 70.386C73.6447 70.4642 74.0596 70.9805 73.9082 71.2935Z" fill="#A5AC33"/>
<path d="M76.9319 29.4279C77.4529 29.398 77.9687 29.37 78.4915 29.3453C76.9618 29.4117 75.4323 29.5128 73.9119 29.6744C74.3853 29.6263 74.8586 29.5782 75.3356 29.5405C75.8492 29.7621 76.3922 29.5742 76.9319 29.4279Z" fill="#A5AC33"/>
<path d="M99.435 28.996C99.5739 29.2779 100.019 28.9096 100.325 28.8557C100.908 28.6306 101.18 29.3298 101.696 29.2844C101.818 29.0916 101.965 28.9538 102.13 28.8504C101.965 28.9538 101.818 29.0916 101.696 29.2844C101.959 29.5 102.424 29.4607 102.521 29.8959C101.934 30.024 101.347 30.152 100.71 30.2914C101.256 31.0169 101.852 30.724 102.439 30.5266C103.041 30.9027 103.651 30.7205 104.257 30.5107C104.413 30.6536 104.567 30.7913 104.723 30.9342C104.768 31.1675 104.821 31.4388 104.434 31.3466C103.502 31.1253 103.792 31.6733 103.911 32.1185C103.851 32.2374 103.794 32.3615 103.735 32.4804C103.858 32.8371 103.98 33.1886 104.103 33.5453C104.67 33.5459 105.486 33.9582 105.378 32.809C105.329 32.5654 105.255 32.3708 105.158 32.2251C105.124 32.1789 105.09 32.1327 105.05 32.1005C105.087 32.1397 105.124 32.1789 105.158 32.2251C105.255 32.3708 105.329 32.5654 105.378 32.809C105.629 32.4961 105.367 32.1643 105.42 31.8565C105.575 30.9749 106.033 30.388 106.988 30.862C107.493 31.1098 107.882 31.0563 108.339 30.875C108.843 30.6773 109.119 30.2807 109.118 29.7832C109.118 29.1695 108.56 29.2122 108.159 29.1949C107.44 29.1657 107.078 28.9553 107.437 28.2002C107.393 28.2096 107.349 28.219 107.306 28.2336C107.349 28.219 107.391 28.2044 107.437 28.2002C108.253 28.4963 108.687 27.6862 109.343 27.5344C109.737 27.4963 110.126 27.4601 110.521 27.4221C110.732 27.4531 110.943 27.4841 111.155 27.5151C111.344 27.6869 111.566 27.6622 111.791 27.5959C112.534 28.4793 113.505 27.7032 114.347 27.9035C114.4 28.1401 114.412 28.3618 114.182 28.5339C113.779 28.8356 113.348 29.2626 113.901 29.6327C114.385 29.9571 114.583 29.4024 114.737 28.9958C114.894 28.5771 115.197 28.2927 115.679 28.3745C117.31 28.6496 117.469 28.496 117.078 26.9582C117.304 26.9265 117.534 26.8931 117.759 26.8614C117.425 25.7092 118.755 25.388 118.993 24.524C119.167 24.4638 119.334 24.4002 119.506 24.3348C119.975 25.4517 120.258 26.5407 119.088 27.4607C118.173 27.5633 117.348 27.7214 117.741 28.9749C117.805 29.161 117.71 29.4487 117.597 29.6327C117.354 30.0235 116.763 30.4307 117.081 30.8361C117.471 31.332 118.02 30.7366 118.507 30.6432C118.747 30.6009 118.979 30.5033 119.207 30.4126C120.024 27.1949 121.761 24.0114 123.374 21.4559C123.821 20.7513 124.308 20.0615 124.836 19.404C124.66 19.3551 124.503 19.259 124.405 19.0267C124.046 19.1508 123.682 19.2767 123.324 19.4008C123.682 19.2767 124.046 19.1508 124.405 19.0267C124.504 19.2642 124.662 19.3603 124.836 19.404C127.157 16.5225 130.276 14.2443 134.074 13.8733C134.39 13.7638 134.712 13.6525 135.028 13.543C135.06 13.2425 135.18 13.0099 135.405 12.8569C135.18 13.0099 135.06 13.2425 135.028 13.543C134.712 13.6525 134.39 13.7638 134.074 13.8733C134.188 13.8626 134.301 13.8468 134.415 13.8362C139.021 13.5327 142.963 16.6142 144.395 20.8018C147.506 29.8733 139.003 37.3207 131.418 40.5831C130.297 41.0636 129.151 41.4198 128.029 41.5883C127.897 41.6686 127.75 41.7371 127.57 41.7818C127.424 41.8207 127.277 41.8372 127.127 41.8658C127.178 42.404 127.325 42.8972 127.632 43.3582C126.99 43.5514 126.228 44.1627 126.136 42.7879C126.116 42.4935 125.742 42.2296 125.441 41.9574C125.58 41.9671 125.717 41.9717 125.86 41.9744C124.337 41.9575 122.922 41.4169 121.76 40.5165C121.701 40.6528 121.644 40.7942 121.6 40.9423C121.364 41.1284 121.127 41.3145 120.89 41.5007C120.411 41.6841 120.392 41.3897 120.423 41.0546C119.265 39.1747 118.041 39.1526 116.843 40.9624C116.731 41.1342 116.445 41.1929 116.243 41.3091C116.109 41.0254 115.988 40.5057 115.627 40.7061C114.828 41.1447 114.196 40.5125 113.473 40.6412C114.797 39.7254 114.813 39.6853 113.952 39.1091C113.825 38.7594 113.575 38.6493 113.216 38.7561C112.522 38.626 111.827 38.4612 111.127 38.3849C110.514 38.3193 110.159 38.0429 110.02 37.4715C110.345 37.3358 110.617 37.1491 110.551 36.755C110.54 36.6719 110.341 36.5558 110.237 36.5628C109.786 36.5914 109.539 36.8159 109.653 37.2975C109.296 38.0925 108.413 37.8599 107.836 38.2218C107.554 37.9199 107.214 37.8408 106.824 37.9759C106.643 37.7433 106.462 37.5106 106.281 37.278C106.076 36.446 105.709 35.9652 104.686 36.2846C104.111 36.4662 103.781 36.0767 104.295 35.6153C105.015 34.9666 104.786 34.6464 104.071 34.3034C103.596 34.0742 103.562 33.7905 104.08 33.5301C103.957 33.1734 103.835 32.8219 103.712 32.4652C103.533 32.9901 102.535 33.2431 102.918 33.8398C103.389 34.5684 102.794 34.5891 102.491 34.6359C102.034 34.7132 101.547 34.6038 101.07 34.5722C100.312 34.7361 99.5524 34.8949 98.7944 35.0589C98.4687 34.4249 97.9989 34.7901 97.5592 34.8844C97.0422 34.9939 96.5466 35.4723 95.9367 35.0409C96.3354 34.5555 96.9184 34.5852 97.3608 34.3453C97.6539 34.1859 97.8613 33.7957 97.5879 33.7051C96.8611 33.4646 96.0541 33.6745 95.264 33.4386C94.816 33.3042 94.5176 34.0964 94.4986 34.4851C94.4431 35.5868 93.8358 36.237 92.976 36.772C93.1833 37.3197 93.6979 36.7768 93.9829 37.0371C94.2888 37.2728 94.5907 37.1046 94.8966 37.0161C95.3682 36.656 95.3589 35.6229 96.1294 35.8193C97.1786 36.0872 97.9838 35.5653 98.8893 35.3329C99.3205 35.9304 100.192 35.3276 100.629 35.9233C101.259 36.2782 101.6 35.7955 101.989 35.4525C102.266 35.6574 102.537 35.859 102.814 36.064C103.36 36.871 102.291 36.9398 102.12 37.4507C101.898 38.1064 102.041 38.5546 102.526 38.8964C102.886 39.1536 103.355 39.5356 103.813 39.2381C104.566 38.7518 103.193 38.6595 103.562 38.1902C104.077 38.209 104.587 38.2348 105.102 38.2537C105.185 39.0236 104.996 39.8937 105.844 40.399C106.114 40.4273 106.222 40.6213 106.311 40.8278C106.29 41.0033 106.261 41.1754 106.239 41.3509C105.101 40.9805 104.701 41.9236 104.194 42.6085C103.821 42.3324 103.983 41.6049 103.306 41.868C103.035 41.2209 102.248 40.926 102.11 40.1864C101.94 39.6086 101.645 39.2012 100.937 39.4059C100.63 39.4077 100.326 39.4147 100.02 39.4166C99.7383 39.184 99.4021 38.8778 99.107 39.3215C98.7996 39.781 99.2523 39.8095 99.5591 39.877C99.636 40.0993 99.6636 40.3155 99.4834 40.5111C99.2126 40.5817 98.8598 40.7733 98.6858 40.5267C97.9439 39.4578 96.9072 39.8398 95.9218 39.9436C95.5581 38.8248 94.7709 38.7847 93.8187 39.1722C93.219 38.6678 93.4234 38.3712 94.0861 38.1881C93.6977 36.7422 92.8933 38.0337 92.3297 38.0088C90.6391 37.9515 90.1187 38.7163 90.5554 40.3192C90.5859 40.4071 90.6145 40.4898 90.6449 40.5777C89.9667 41.4666 88.6606 41.8377 88.4688 43.1256C86.918 43.8303 88.3053 44.12 88.6582 44.5594C88.5989 44.6784 88.5415 44.8024 88.4771 44.9232C87.9786 44.5747 87.4593 44.5924 86.9326 44.8615C87.1467 45.3779 87.0501 45.7297 86.4473 45.9326C85.7654 46.1629 85.1015 46.4622 84.3865 46.7502C84.7817 47.2097 85.5929 47.4383 85.0092 48.2077C85.0988 48.1767 85.1884 48.1457 85.2763 48.1268C85.1902 48.1508 85.0988 48.1767 85.0092 48.2077C84.5271 48.2819 84.0504 48.3544 83.5701 48.4338L83.4331 48.4812L83.296 48.5287C82.6379 48.6059 82.183 47.2235 81.3825 48.2879C80.9749 48.7648 80.4054 48.9272 79.8341 49.1018C78.9501 48.4411 78.3716 48.9018 78.0874 49.7181C77.727 50.7575 77.1402 51.6206 76.3962 52.4049C76.1255 52.7997 75.853 53.1892 75.5823 53.584C75.853 53.1892 76.1255 52.7997 76.3962 52.4049C75.8228 52.505 75.2441 52.6069 74.6689 52.7018C74.0521 52.9327 73.1919 53.0742 74.3107 53.8331C74.6801 54.0815 74.5169 54.497 74.4854 54.8494C73.8316 55.6894 71.9969 55.0625 71.9917 56.6505C74.1751 57.2956 75.5203 55.4001 77.3722 55.0195C77.7749 54.938 78.26 54.4633 77.4505 54.2225C76.976 54.0799 77.2578 53.4613 76.7666 53.4577C76.9153 52.9663 77.4049 52.9994 77.7578 52.8251C78.4683 52.9844 79.1632 52.877 79.8506 52.6969C79.9066 52.3128 80.0299 52.0039 80.5264 52.0056C81.2166 52.0041 81.2141 51.5534 81.1198 51.0592C82.1812 51.0044 81.6155 52.1844 82.2176 52.4738C82.8284 52.7718 83.5525 52.2201 84.1345 52.7076C84.1972 52.8885 84.258 53.0643 84.3206 53.2452C83.8251 53.4168 83.225 53.474 82.8552 53.7872C82.3067 54.2492 81.4396 54.422 80.8522 54.8569C79.3231 55.0273 77.798 55.2947 76.2788 55.6643C75.3909 55.879 75.1184 56.5928 75.256 57.263C75.113 57.2083 74.9648 57.1554 74.8255 57.111C74.0687 56.852 73.6289 57.2358 73.7692 58.0845C73.683 58.4154 73.5916 58.7481 73.5054 59.0789C73.1917 59.3496 72.9549 59.8252 72.4159 59.4619C72.6113 59.1395 72.8261 58.822 73.0073 58.493C73.1921 58.1569 73.4277 57.7801 72.9421 57.5198C72.5147 57.2915 72.3569 57.7224 72.1786 57.9578C71.8587 58.3811 71.5635 58.8075 71.0541 59.0244C70.8265 58.2985 72.1122 57.7319 71.5016 57.1791C70.9708 56.7029 70.3637 57.7119 69.6788 57.7117C69.375 57.2263 69.7289 56.5944 69.3177 56.1231C68.6108 55.3258 69.2854 54.7333 69.8787 54.7248C71.0882 54.7055 71.2485 53.7701 71.7571 53.1077C71.9364 53.0457 72.1209 52.9818 72.3002 52.9197C72.6971 52.736 73.3451 52.7491 73.3402 52.1892C73.3393 51.709 72.8853 51.4551 72.3815 51.398C71.3736 52.2216 70.3861 53.206 69.1038 51.5485C68.9973 52.3321 68.9125 52.923 68.8331 53.5121C68.6346 53.9108 68.4874 54.3554 67.9473 54.4323C65.881 53.9377 65.637 54.0685 65.3757 55.8378C65.8041 55.9326 65.9863 55.1459 66.492 55.5324C67.3935 56.1582 66.9676 57.4518 67.8359 58.1354C68.064 58.3169 67.6506 58.6916 67.3274 58.8324C67.3348 59.212 67.2036 59.9926 67.6672 59.78C68.9176 59.1966 69.6158 60.3096 70.6075 60.3947C70.7785 61.0591 70.3824 62.0125 71.5295 62.1712C71.7206 62.3482 71.9405 62.3183 72.1655 62.252C72.223 62.128 72.2874 62.0072 72.3448 61.8831C72.4689 61.3887 72.8452 60.9921 73.1545 60.5724C72.847 60.9973 72.4689 61.3887 72.3448 61.8831C72.2874 62.0072 72.223 62.128 72.1655 62.252C73.5415 63.3446 74.5539 62.091 75.8135 61.8923C75.4349 61.2592 74.8779 61.4578 74.0849 61.0261C75.8149 60.873 75.8278 59.7165 76.161 58.8543C76.2079 58.7339 76.2337 58.6208 76.2507 58.5165C76.549 58.6448 76.9014 58.6907 77.2935 58.5955C77.9353 58.437 78.5825 58.3113 79.2281 58.1979C78.968 58.6063 78.8544 59.0798 78.8839 59.6253C78.7011 59.677 78.5184 59.7634 78.3371 59.7683C77.2299 59.8274 76.4758 60.0363 77.6424 61.1724C78.1328 61.651 77.3505 61.8639 77.3773 62.2483C76.7237 62.5093 77.2045 63.7959 76.068 63.6336C75.608 63.567 75.0032 63.4059 74.779 63.9351C74.6679 64.2109 74.8797 64.3112 75.1128 64.4216C73.9572 64.9548 72.8016 65.4879 71.6496 66.0314C71.3876 65.7864 71.0346 65.6191 70.5873 65.6061C65.5702 65.4729 60.5752 65.8127 55.6163 66.632C53.6286 66.9611 53.8007 70.0508 55.8008 69.7231C59.224 69.1576 62.6573 68.8259 66.1025 68.7158C60.338 71.5739 54.6554 74.6004 49.0706 77.7899C48.8676 77.6981 48.6366 77.6449 48.3673 77.6513C44.1227 77.737 39.9571 78.4264 35.895 79.6705C33.9528 80.2676 34.9691 83.1866 36.9061 82.5913C39.0136 81.9428 41.1327 81.4814 43.2808 81.1719C37.3687 84.7121 31.5685 88.4393 25.8891 92.3446C24.2211 93.4952 25.9819 96.0407 27.6552 94.8883C41.7485 85.1874 56.5926 76.5639 72.0688 69.2208C73.0277 68.7674 73.9865 68.3139 74.9489 67.8707C74.8927 68.2201 74.8031 68.558 74.3552 68.7651C74.0496 68.9056 73.4338 69.2925 73.7759 69.7009C74.2048 70.2066 74.7023 69.7507 75.093 69.3955C75.3452 69.1692 75.541 68.9162 75.5655 68.5604C75.5172 68.114 76.3895 67.9394 76.029 67.3753C78.4982 66.2368 80.9764 65.1243 83.4599 64.0272C83.7388 64.7817 84.451 64.6219 85.0308 64.728C85.6847 64.8432 86.3537 64.5075 87.0117 64.737C87.5074 64.907 88.1689 65.1295 88.3554 64.4745C88.5608 63.7376 87.5594 64.1191 87.2626 63.6371C88.7166 63.2495 88.9162 64.6277 89.6605 65.1747C89.6416 65.5807 89.3755 65.8523 89.1093 66.1066C88.3947 66.7881 88.7118 67.1241 89.4912 67.329C89.152 68.0717 88.6359 67.7235 88.2138 67.4933C87.6186 67.1725 87.0677 67.2012 86.4794 67.4801L86.3476 67.5257L86.2158 67.5713C85.112 67.9129 84.061 68.5777 82.8507 67.8273C82.4444 67.5743 81.9229 67.8417 81.4731 68.0089C80.7506 69.1621 79.8992 70.25 79.6622 71.6288C79.145 72.6588 78.2331 72.7024 77.0704 72.5839C77.615 72.3664 78.0086 72.2243 78.3862 72.0531C78.7726 71.873 79.0191 71.5619 78.8161 71.1459C78.6237 70.7436 78.193 70.8638 77.9475 71.0414C77.2267 71.5688 74.8421 70.5128 76.0388 72.9294C76.0655 72.9896 75.8974 73.152 75.81 73.2575C75.2574 73.9467 75.9077 74.0515 76.2627 73.9344C77.2733 73.5962 78.1264 74.0824 79.0429 74.2399C79.0733 74.3277 79.1037 74.4156 79.1359 74.5087C77.7757 74.9795 76.8277 76.4192 75.1802 76.1964C74.7097 76.1335 74.4537 76.3148 74.3293 76.7399C74.1807 77.2487 74.5909 77.2398 74.8907 77.3386C75.2506 77.4572 75.6017 77.5846 75.958 77.7102C76.0189 77.8859 76.0815 78.0669 76.1424 78.2426C76.182 78.4084 76.2199 78.5689 76.2578 78.7295C75.6786 79.0689 75.0977 79.4032 74.5168 79.7374C76.1841 78.7724 77.8443 77.804 79.5062 76.8235C78.9025 76.853 78.4605 76.8381 78.1205 76.8111C78.1001 76.6329 78.1185 76.4471 78.199 76.3729C78.1556 76.469 78.3859 76.725 79.5203 76.8128C81.8947 75.4177 84.2622 74.0193 86.6348 72.6191C86.4057 72.2642 86.1661 71.913 86.0388 71.5113C86.1661 71.913 86.4057 72.2642 86.6348 72.6191C90.3378 70.4399 94.0426 68.2659 97.7793 66.1503C103.682 62.8045 109.657 59.584 115.792 56.6848C119.232 55.0598 122.745 53.612 126.258 52.1642C126.457 51.5107 125.591 50.8323 126.004 50.1854C126.43 49.8123 126.361 49.3732 126.172 48.9292C126.121 48.7498 126.068 48.5774 126.017 48.3979C126.573 48.2115 127.151 48.0576 127.534 47.5603C128.01 47.4013 128.442 47.1996 128.61 46.5917C128.158 46.5163 127.806 46.4531 127.448 46.3917C127.446 46.6933 127.445 46.995 127.443 47.2967C127.445 46.995 127.446 46.6933 127.448 46.3917C127.418 46.3038 127.382 46.2177 127.346 46.1317C127.954 45.244 128.983 44.9574 129.835 44.4191C130.27 44.1411 130.252 44.5471 130.258 44.8226C129.497 45.4044 129.826 45.8754 130.525 45.9517C131.41 46.0508 132.372 45.9838 132.718 44.8684C133.267 44.6786 133.815 44.4888 134.363 44.299C134.483 44.3558 134.6 44.4197 134.72 44.4765C133.994 44.9537 134.262 45.3703 134.908 45.4129C135.366 45.4396 135.547 45.6722 135.821 45.8842C135.869 45.8677 135.916 45.8513 135.958 45.8367C135.911 45.8531 135.863 45.8696 135.821 45.8842C134.127 46.4821 134.355 46.3915 134.865 47.7435C134.956 47.9898 135.049 48.1893 135.141 48.3541C144.817 43.8178 154.216 36.8592 156.017 25.7749C157.68 15.5545 150.461 7.35524 140.401 5.88805C129.136 4.2476 119.331 10.9358 112.714 19.4669C110.922 21.7776 109.321 24.2306 107.833 26.7371C105.05 27.7007 102.216 28.2821 99.3573 28.635C99.3279 28.7378 99.3374 28.8503 99.3979 28.9741L99.435 28.996ZM113.961 39.1176C113.75 39.1906 113.538 39.2758 113.323 39.3384C113.539 39.2809 113.75 39.1906 113.961 39.1176ZM69.68 54.1509C69.7465 54.07 69.8218 53.9977 69.8936 53.9323C69.8165 53.9995 69.7465 54.07 69.68 54.1509C69.5504 54.2711 69.4244 54.4015 69.2982 54.5147C69.4244 54.4015 69.5504 54.2711 69.68 54.1509ZM80.7177 73.689C80.4597 73.8304 80.2283 74.0147 79.9827 74.175C80.2283 74.0147 80.4597 73.8304 80.7177 73.689C80.727 73.46 80.7416 73.2292 80.7544 72.9932C80.7451 73.2222 80.7252 73.4549 80.7177 73.689ZM88.3621 71.0428C88.1848 71.1447 88.0003 71.2085 87.8104 71.2569C88.0003 71.2085 88.1848 71.1447 88.3621 71.0428ZM89.7965 69.0469C89.7965 69.0469 89.7561 69.0493 89.7332 69.0514C89.654 69.0615 89.5871 69.073 89.5203 69.0846C89.5871 69.073 89.6575 69.0545 89.7332 69.0514C89.7543 69.0441 89.7719 69.0438 89.7965 69.0469C89.7357 68.8711 89.6748 68.6953 89.614 68.5196C89.6748 68.6953 89.7357 68.8711 89.7965 69.0469ZM119.039 45.8233C119.039 45.8233 119.023 45.7768 119.016 45.7561C119.023 45.7768 119.032 45.8026 119.039 45.8233ZM115.731 42.4066C115.669 42.2257 115.601 42.0466 115.533 41.8675C115.595 42.0484 115.663 42.2275 115.731 42.4066ZM95.5147 53.7757C95.3303 53.8569 95.1547 53.9466 95.0004 54.0637C95.1547 53.9466 95.3321 53.8621 95.5147 53.7757ZM93.2504 48.0873C93.3348 48.0581 93.4244 48.0271 93.5069 47.9927C93.4226 48.0219 93.333 48.0529 93.2504 48.0873ZM107.379 49.1823C107.148 49.0598 106.922 48.9354 106.691 48.8302C106.922 48.9354 107.148 49.0598 107.379 49.1823ZM100.545 50.3323C100.429 50.3724 100.31 50.4196 100.189 50.4789C99.5864 50.7858 98.9789 51.0945 98.3785 51.4065C98.9807 51.0996 99.5882 50.7909 100.189 50.4789C100.31 50.4196 100.429 50.3724 100.545 50.3323ZM112.69 44.212C112.604 44.34 112.581 44.545 112.538 44.7104C112.583 44.5502 112.601 44.347 112.69 44.212ZM111.897 45.0076C112.021 44.8893 112.151 44.7865 112.311 44.7369C112.151 44.7865 112.021 44.8893 111.897 45.0076C111.857 45.0447 111.818 45.087 111.78 45.1292C111.818 45.087 111.858 45.0499 111.897 45.0076ZM107.069 42.094C106.765 42.5812 106.399 42.8875 105.995 43.0678C106.399 42.8875 106.765 42.5812 107.069 42.094ZM105.177 44.5434C105.122 44.4698 105.063 44.3685 105.01 44.2828C105.063 44.3685 105.122 44.4698 105.177 44.5434C105.72 44.3554 106.263 44.1674 106.803 43.9865C107.003 43.5236 107.24 43.2386 107.513 43.1039C107.24 43.2386 107.003 43.5236 106.803 43.9865C106.835 44.0795 106.865 44.1674 106.898 44.2605C107.383 44.1966 107.869 44.1327 108.353 44.0636C108.469 44.365 108.627 44.5997 108.809 44.7855C108.627 44.5997 108.469 44.365 108.353 44.0636C107.867 44.1275 107.381 44.1914 106.898 44.2605C106.752 44.4207 106.628 44.591 106.502 44.7735C106.625 44.598 106.752 44.4207 106.898 44.2605C106.865 44.1674 106.835 44.0795 106.803 43.9865C106.26 44.1744 105.717 44.3624 105.177 44.5434C104.869 44.5401 104.559 44.6009 104.252 44.6496C104.559 44.6009 104.869 44.5401 105.182 44.5416L105.177 44.5434ZM102.336 44.3344C102.247 43.8904 102.111 43.4975 101.903 43.1873C102.111 43.4975 102.247 43.8904 102.336 44.3344C101.953 44.4554 101.697 44.6194 101.573 44.8417C101.545 44.8976 101.524 44.9569 101.51 45.0196C101.524 44.9569 101.545 44.8976 101.573 44.8417C101.697 44.6194 101.953 44.4554 102.336 44.3344ZM92.2359 44.2356C92.3238 44.2168 92.4152 44.1909 92.5014 44.1669C92.417 44.1961 92.3238 44.2168 92.2377 44.2408C91.9556 44.1763 91.6873 44.0493 91.412 43.9361C91.6873 44.0493 91.9556 44.1763 92.2377 44.2408L92.2359 44.2356ZM91.6944 45.332L91.6857 45.3408L91.6962 45.3371L91.6944 45.332ZM90.626 51.0799C90.7458 50.7779 90.7701 50.4047 90.8422 50.0672C90.7701 50.4047 90.7458 50.7779 90.626 51.0799ZM86.7491 47.316C86.7194 47.3667 86.6933 47.4279 86.6655 47.4838C86.6933 47.4279 86.7194 47.3667 86.7491 47.316ZM88.9032 54.0845C88.8244 53.857 88.772 53.6031 88.6195 53.4185C88.779 53.6065 88.8297 53.8552 88.9032 54.0845ZM86.3218 48.367C86.4499 48.2937 86.5944 48.3189 86.7391 48.3788C86.5944 48.3189 86.4481 48.2885 86.3218 48.367C86.1517 48.1827 85.9735 48.1112 85.7832 48.0903C85.9735 48.1112 86.1535 48.1879 86.3218 48.367ZM84.0885 54.246C83.9031 54.1539 83.7195 54.0669 83.5574 54.042C83.7195 54.0669 83.9031 54.1539 84.0885 54.246ZM82.8656 54.7041C82.9095 54.6773 82.9533 54.6506 82.9972 54.6238C83.0448 54.3179 83.1407 54.1515 83.2688 54.0782C83.1407 54.1515 83.0448 54.3179 82.9972 54.6238C82.9533 54.6506 82.9095 54.6773 82.8656 54.7041ZM80.2043 62.1265C80.041 62.2004 79.8776 62.2743 79.7143 62.3482C79.7971 62.0417 79.9837 62.035 80.2043 62.1265ZM82.0327 61.3199C82.0327 61.3199 81.9709 61.2949 81.9409 61.2764C81.8534 61.0578 81.738 60.8777 81.4772 60.8407C81.2235 60.1932 80.5935 59.9251 80.1 59.5228C80.1644 59.402 80.2237 59.2831 80.2899 59.1676C81.2689 59.4886 81.6169 58.7372 82.029 58.1371C82.1007 58.0371 82.1634 57.9285 82.2298 57.8303C83.6519 57.7259 85.0728 57.7203 86.4942 57.8187C86.5208 57.8443 86.5455 57.8647 86.5721 57.8902C86.9666 58.2283 87.6227 58.4354 87.1633 59.0865C85.4525 59.8235 83.7434 60.5656 82.038 61.3181L82.0327 61.3199ZM92.4469 66.931C92.2853 66.9928 92.1237 67.0545 91.9602 67.1111C92.1237 67.0545 92.2871 66.998 92.4469 66.931C92.4251 66.4928 92.2704 66.2164 92.051 66.0261C92.2686 66.2112 92.4233 66.4877 92.4469 66.931ZM92.3409 63.0775C92.0827 63.1842 91.8227 63.2858 91.5729 63.3318C91.8227 63.2858 92.0827 63.1842 92.3409 63.0775ZM92.4063 61.5439C92.3542 61.6661 92.3021 61.7884 92.2481 61.9055C91.6656 62.2692 91.1133 62.6862 90.4187 62.8456C90.2377 62.9025 90.0548 62.9542 89.8738 63.011C89.3507 62.6595 88.5935 62.9622 88.1328 62.4328C88.0792 62.295 88.0029 62.1941 87.9249 62.1053C89.3126 61.5091 90.7055 60.9112 92.102 60.3235C92.3485 60.6434 92.4915 61.0223 92.4063 61.5439ZM95.2282 61.7654C95.0848 61.9308 94.9272 62.0896 94.7553 62.207C94.9343 62.0929 95.0848 61.9308 95.2282 61.7654C95.2119 61.6842 95.1833 61.6015 95.1547 61.5188C95.1833 61.6015 95.2119 61.6842 95.2282 61.7654ZM98.809 63.2409C98.5957 63.5116 98.3824 63.7823 98.1691 64.0529C98.3824 63.7823 98.5957 63.5116 98.809 63.2409C99.0186 63.2668 99.2283 63.2926 99.438 63.3184C99.2283 63.2926 99.0186 63.2668 98.809 63.2409ZM100.983 62.4769C100.687 62.8512 100.281 63.0264 99.8597 63.1724C100.281 63.0264 100.687 62.8512 100.983 62.4769ZM102.803 61.5456C102.706 61.4346 102.595 61.3516 102.474 61.2947C102.595 61.3516 102.706 61.4346 102.803 61.5456C102.914 61.5073 103.03 61.4844 103.134 61.4948C103.025 61.4863 102.916 61.5124 102.803 61.5456ZM103.601 57.6746C103.499 57.5013 103.435 57.3325 103.409 57.1735C103.437 57.3377 103.499 57.5013 103.601 57.6746C104.105 57.5983 104.641 57.8993 104.82 58.1787C104.641 57.8993 104.109 57.5913 103.601 57.6746ZM105.051 55.6732C104.953 55.4929 104.848 55.3612 104.749 55.2624C104.855 55.3646 104.955 55.4981 105.051 55.6732ZM105.685 56.2932C105.736 56.3738 105.825 56.459 105.966 56.5605C106.069 56.7217 106.154 56.8832 106.21 57.0434C106.154 56.8832 106.069 56.7217 105.966 56.5605C105.825 56.459 105.736 56.3738 105.685 56.2932ZM107.439 59.9466C107.348 59.9204 107.247 59.9031 107.155 59.877C107.252 59.9013 107.353 59.9186 107.439 59.9466ZM105.609 54.8141C105.632 54.76 105.656 54.711 105.688 54.6654C105.656 54.711 105.632 54.76 105.609 54.8141ZM107.629 59.5741C107.559 59.4071 107.466 59.2891 107.345 59.2323C107.466 59.2891 107.565 59.4053 107.629 59.5741C107.715 59.2432 107.801 58.9123 107.889 58.5866C107.803 58.9175 107.717 59.2484 107.629 59.5741ZM112.975 56.5135C112.819 56.3706 112.72 56.2371 112.658 56.1255C112.638 56.086 112.62 56.0516 112.613 56.0136C112.626 56.0498 112.638 56.086 112.658 56.1255C112.717 56.2441 112.819 56.3706 112.975 56.5135C113.218 56.4296 113.428 56.3046 113.642 56.1726C113.434 56.3027 113.216 56.4244 112.975 56.5135ZM112.424 54.0181C112.358 53.8268 112.29 53.6304 112.173 53.4972C112.294 53.6234 112.356 53.8216 112.424 54.0181C112.673 54.0363 112.876 54.1455 113.061 54.2723C112.874 54.1403 112.673 54.0363 112.424 54.0181ZM115.126 52.1857L115.136 52.182L115.126 52.1857ZM115.961 54.5826C116.114 54.1361 116.264 53.6845 116.411 53.2399C116.084 53.1971 115.807 53.0961 115.587 52.9231C115.807 53.0961 116.082 53.1919 116.411 53.2399C116.259 53.6863 116.108 54.1379 115.961 54.5826ZM116.879 53.6687C116.818 53.4929 116.752 53.319 116.686 53.145C116.746 53.3208 116.813 53.4947 116.879 53.6687C116.964 53.5406 117.084 53.5282 117.227 53.5655C117.091 53.5315 116.964 53.5406 116.879 53.6687ZM118.837 51.2424C118.747 51.4243 118.593 51.576 118.375 51.6977C118.594 51.5812 118.754 51.4276 118.837 51.2424C118.928 51.0605 118.948 50.8452 118.911 50.6032C118.955 50.8486 118.928 51.0605 118.837 51.2424ZM120.797 52.6247C120.493 52.6317 120.187 52.6336 119.882 52.6406C120.188 52.6387 120.493 52.6317 120.797 52.6247ZM120.856 52.9635C120.947 53.2271 121.15 53.2843 121.379 53.2803C121.15 53.2843 120.952 53.2253 120.856 52.9635ZM123.015 52.4129C123.113 52.3557 123.204 52.2952 123.294 52.2295C123.204 52.2952 123.108 52.3575 123.015 52.4129ZM120.287 44.1062C120.102 43.7246 120.131 43.3843 120.246 43.0668C120.131 43.3843 120.1 43.7194 120.287 44.1062ZM124.17 51.7584C124.085 51.7703 124.006 51.7976 123.929 51.8302C124.008 51.8028 124.087 51.7754 124.17 51.7584ZM124.161 50.8467C124.131 50.7588 124.1 50.6709 124.07 50.583C124.1 50.6709 124.131 50.7588 124.161 50.8467C124.24 50.8367 124.323 50.8196 124.4 50.8044C124.316 50.8163 124.239 50.8315 124.161 50.8467ZM122.663 43.8744C122.602 43.6986 122.541 43.5228 122.48 43.3471C122.541 43.5228 122.602 43.6986 122.663 43.8744C122.727 43.823 122.789 43.7959 122.847 43.7758C122.789 43.7959 122.729 43.8281 122.663 43.8744ZM122.652 42.9922C122.517 42.9928 122.401 42.9809 122.304 42.9566C122.207 42.9323 122.125 42.9025 122.058 42.862C122.125 42.9025 122.201 42.9341 122.304 42.9566C122.401 42.9809 122.517 42.9928 122.652 42.9922ZM122.747 42.363C122.78 42.4733 122.795 42.584 122.785 42.6917C122.795 42.584 122.775 42.4752 122.747 42.363C122.879 42.2133 123 42.102 123.119 42.0375C123.001 42.1072 122.879 42.2133 122.747 42.363ZM123.269 41.4819C123.269 41.4819 123.297 41.4433 123.315 41.4257C123.297 41.4433 123.287 41.4643 123.269 41.4819ZM130.391 43.3121C130.359 43.2191 130.326 43.126 130.294 43.033C130.326 43.126 130.359 43.2191 130.391 43.3121ZM138.957 43.3283C139.015 43.3429 139.07 43.3644 139.13 43.3842C139.07 43.3644 139.015 43.3429 138.957 43.3283ZM135.45 39.3724C135.35 39.3898 135.246 39.3968 135.162 39.374C135.246 39.3968 135.352 39.395 135.45 39.3724C135.694 39.259 135.808 39.0577 135.752 38.8107C135.808 39.0577 135.694 39.259 135.45 39.3724ZM139.694 44.5723C139.496 44.444 139.239 44.3999 139.01 44.3172C139.239 44.3999 139.496 44.444 139.694 44.5723C139.73 44.6583 139.775 44.7529 139.838 44.8177C139.775 44.7529 139.735 44.6565 139.694 44.5723ZM141.779 42.6639C141.343 42.4964 140.986 42.2668 140.72 41.9594C140.986 42.2668 141.343 42.4964 141.779 42.6639C142.147 42.739 142.487 42.7487 142.786 42.6915C142.493 42.7469 142.153 42.7372 141.779 42.6639ZM141.931 38.7036C142.129 38.7799 142.3 38.848 142.452 38.9112C142.3 38.848 142.129 38.7799 141.931 38.7036ZM143.099 35.9027C143.361 35.893 143.499 35.9322 143.575 35.9985C143.499 35.9322 143.361 35.893 143.099 35.9027ZM144.458 33.6377C144.47 33.946 144.422 34.1826 144.321 34.3681C144.417 34.1844 144.472 33.9512 144.458 33.6377ZM155.855 19.7987C155.887 19.8918 155.927 19.9882 155.954 20.083C155.661 20.2944 155.324 20.4459 154.981 20.5298C155.322 20.4407 155.661 20.2944 155.954 20.083C155.932 19.9863 155.9 19.8933 155.855 19.7987ZM154.028 18.0518C154.24 18.0828 154.451 18.1138 154.658 18.1466C154.446 18.1156 154.235 18.0846 154.028 18.0518C153.656 17.8797 153.371 17.9436 153.221 18.123C153.371 17.9436 153.656 17.8797 154.028 18.0518ZM153.061 20.3724C153.186 20.4448 153.329 20.4995 153.479 20.5403C153.329 20.4995 153.191 20.443 153.061 20.3724ZM151.856 16.8413C151.677 16.6832 151.448 16.6005 151.109 16.6774C151.453 16.5987 151.677 16.6832 151.856 16.8413ZM152.494 19.7929C152.599 20.0112 152.778 20.1867 152.995 20.3198C152.778 20.1867 152.599 20.0112 152.494 19.7929C152.3 19.6749 152.111 19.6071 151.936 19.5806C152.116 19.6053 152.3 19.6749 152.494 19.7929ZM147.54 28.4893C147.298 28.3531 147.029 28.122 146.704 27.7948C146.394 27.8383 146.182 27.8073 146.083 27.6911C146.182 27.8073 146.394 27.8383 146.704 27.7948C147.024 28.1238 147.3 28.3583 147.54 28.4893C147.622 28.5364 147.697 28.5681 147.77 28.5893C147.697 28.5681 147.62 28.5313 147.54 28.4893ZM149.394 21.4796C149.516 21.8312 149.636 22.1775 149.757 22.5291C149.845 22.713 149.942 22.8934 150.024 23.0792C149.942 22.8934 149.852 22.7164 149.757 22.5291C149.588 22.721 149.605 22.9408 149.667 23.1564C149.661 23.3264 149.648 23.4931 149.632 23.6667C149.643 23.4949 149.661 23.3264 149.667 23.1564C149.414 24.0952 148.013 23.9375 147.861 24.9803C147.681 25.0423 147.5 25.1165 147.321 25.1786C146.015 23.9115 146.089 23.6658 148.039 22.8172C148.85 22.7216 149.164 22.1441 149.387 21.4763L149.394 21.4796ZM145.9 22.6428C145.964 22.6382 146.043 22.6282 146.136 22.6075C146.043 22.6282 145.971 22.6415 145.9 22.6428ZM146.93 21.4235C146.969 21.3813 147.006 21.3338 147.042 21.2864C147.006 21.3338 146.969 21.3813 146.93 21.4235ZM145.455 18.015C145.57 17.987 145.68 17.966 145.788 17.9693C145.68 17.966 145.57 17.987 145.455 18.015ZM141.584 8.58747C141.758 8.52725 141.958 8.47523 142.122 8.47066C141.958 8.47523 141.759 8.53242 141.584 8.58747ZM145.117 18.6588C145.069 18.8954 145.06 19.1417 145.005 19.3749C144.826 19.437 144.65 19.5094 144.471 19.5714C144.65 19.5094 144.826 19.437 145.005 19.3749C145.06 19.1417 145.069 18.8954 145.117 18.6588ZM140.305 7.53659C140.143 7.61567 140.003 7.65278 139.885 7.65309C140.003 7.65278 140.143 7.61567 140.305 7.53659ZM142.265 16.7285C142.534 17.0463 142.715 17.2963 142.804 17.5201C142.715 17.2963 142.532 17.0411 142.265 16.7285ZM138.607 13.207C138.692 13.1778 138.776 13.1486 138.862 13.1246C138.947 13.0954 139.035 13.0765 139.121 13.0698C139.035 13.0765 138.948 13.1005 138.862 13.1246C138.778 13.1538 138.694 13.183 138.607 13.207ZM130.236 13.7197C130.01 13.4913 129.771 13.4001 129.536 13.4007C129.777 13.3983 130.015 13.4895 130.242 13.7179L130.236 13.7197ZM128.133 12.9483C127.992 12.9334 127.867 12.8957 127.751 12.8492C127.867 12.8957 127.992 12.9334 128.133 12.9483ZM126.268 8.17528C125.396 8.89424 124.64 9.71171 123.961 10.6007C124.634 9.71354 125.39 8.89606 126.268 8.17528ZM122.748 12.4159C122.778 12.8453 123.019 13.3005 123.086 13.7345C123.019 13.3005 122.778 12.8453 122.748 12.4159C122.569 12.478 122.384 12.5418 122.205 12.6039C122.384 12.5418 122.569 12.478 122.748 12.4159ZM117.866 18.5923C117.812 18.64 117.759 18.6929 117.719 18.7474C117.765 18.6911 117.812 18.64 117.866 18.5923ZM116.943 16.8106C117.165 16.6871 117.376 16.5275 117.593 16.3885C117.376 16.5275 117.165 16.6871 116.943 16.8106C116.803 16.6795 116.649 16.5591 116.485 16.5117C116.649 16.5591 116.803 16.6795 116.943 16.8106ZM116.687 19.6026C116.459 19.6932 116.234 19.7595 116.017 19.7477C116.234 19.7595 116.459 19.6932 116.687 19.6026ZM113.643 18.3812C113.776 18.4916 113.943 18.5667 114.12 18.6156C113.941 18.5615 113.776 18.4916 113.643 18.3812ZM114.695 22.683C114.756 22.8587 114.822 23.05 114.934 23.185C114.824 23.0552 114.758 22.8639 114.695 22.683C114.66 22.6836 114.628 22.6945 114.606 22.714C114.63 22.6997 114.658 22.6957 114.695 22.683ZM112.882 22.7144C112.388 22.9085 112.236 22.7586 112.171 22.5204C112.241 22.7567 112.388 22.9085 112.882 22.7144ZM107.154 27.3834C107.168 27.3207 107.188 27.2614 107.215 27.2176C107.185 27.2684 107.168 27.3207 107.154 27.3834C107.019 27.4533 106.837 27.4929 106.701 27.575C106.832 27.4947 107.013 27.4552 107.154 27.3834Z" fill="#A5AC33"/>
<path d="M67.2793 32.2077C68.1323 32.6766 69.3888 31.9232 70.0131 33.0618C71.5781 34.2741 73.3138 34.2059 75.1192 33.6909C75.8286 33.9837 76.6004 33.4502 77.298 33.8282C77.1138 34.2682 76.0936 34.4593 76.8601 35.1897C78.5798 35.7233 80.3536 36.1744 81.4278 37.794C81.7349 38.5445 81.3932 38.8538 80.6554 38.8371C80.2645 38.8335 79.9641 38.9549 79.9681 39.3587C79.9722 39.7799 80.3282 39.8361 80.6856 39.8282C80.9673 39.8233 81.2508 39.8409 81.5326 39.8534C81.8964 39.7274 82.2567 39.6085 82.6222 39.4878C82.9656 39.8146 83.0027 40.1434 82.5391 40.3733C81.7859 40.7556 81.0328 41.1553 80.242 41.429C79.8572 41.5622 79.242 41.4394 79.3703 42.0318C79.513 42.6829 80.0909 42.425 80.5427 42.2975C81.5963 42.749 82.7016 43.6226 83.4649 41.888C83.9513 41.6559 84.8581 41.6489 84.7843 41.0434C84.5974 39.4119 85.568 39.5043 86.6355 39.5863C86.9043 39.4932 87.1785 39.3983 87.4474 39.3053L87.4509 39.3156C87.5901 39.6495 87.6635 40.1683 88.1364 40.0509C88.5725 39.9462 88.6558 39.4195 88.7522 39.0157C88.8485 38.6118 88.4424 38.0867 89.1435 37.8266C89.53 37.6812 90.3474 38.064 90.2468 37.3983C90.1426 36.705 89.3414 37.3239 88.8949 37.1427C88.2561 36.8833 87.6833 37.1048 87.1053 37.328C86.6362 37.5078 86.1859 37.5884 85.791 37.1809C85.9504 37.0273 86.0902 36.8342 86.2832 36.7269C86.5974 36.5429 87.1128 36.4628 86.8125 35.9705C86.5779 35.5828 86.2593 35.9073 85.9749 36.0579C85.8257 36.1385 85.6106 36.0971 85.4276 36.1142C84.719 35.96 84.0223 36.0623 83.3296 36.2442C83.025 36.2512 82.7239 36.2512 82.4194 36.2582C81.6789 36.0804 81.6285 35.5768 81.8436 34.9871C82.1662 34.1113 82.6213 33.3111 83.3096 32.6561C83.2194 31.6452 82.7175 31.3038 81.7337 31.7022C81.3806 31.8418 81.0185 31.9556 80.6653 32.0778C80.486 32.1399 80.3015 32.2038 80.1223 32.2658C78.6738 33.0104 77.121 32.089 75.6607 32.5946C75.3547 32.3589 75.0494 32.5341 74.747 32.6156C74.7157 32.3717 74.4111 32.0546 74.8241 31.9174C75.1984 31.7878 75.6015 31.7756 75.4612 31.2337C75.3262 30.7073 74.8648 30.7049 74.4422 30.6949C73.7853 30.6734 73.1216 30.6832 72.6335 31.2516C72.226 31.7284 71.6502 31.7367 71.0977 31.7948C71.0081 31.8258 70.9185 31.8568 70.8288 31.8879C69.9131 31.5449 68.9473 31.6882 68.0034 31.6734C67.2696 31.4295 66.5375 31.1735 65.7443 31.6449C66.1455 32.2413 66.7541 32.1232 67.2759 32.2321L67.2793 32.2077Z" fill="#A5AC33"/>
<path d="M19.721 80.9218C18.7278 83.1008 17.7487 85.2864 16.8349 87.49C16.7028 87.8078 16.5761 88.1238 16.4529 88.4501C16.5778 88.1289 16.7081 87.806 16.8349 87.49C17.754 85.2846 18.726 83.0956 19.721 80.9218Z" fill="#A5AC33"/>
<path d="M70.8397 65.073C71.3424 64.9221 71.4247 64.5116 71.2637 64.0636C71.0975 63.6175 70.7615 63.3633 70.2891 63.5847C69.9133 63.7611 69.5574 64.0291 69.6751 64.6251C69.9725 64.9043 70.3282 65.2327 70.845 65.0711L70.8397 65.073Z" fill="#A5AC33"/>
<path d="M67.7371 43.558C67.7744 43.6145 68.1157 43.5601 68.2296 43.4628C68.7009 43.0507 68.3874 42.725 68.0635 42.4203C67.5685 42.6959 67.4175 43.0781 67.7353 43.5528L67.7371 43.558Z" fill="#A5AC33"/>
<path d="M71.0664 71.0151C71.2983 70.9175 71.5227 70.7472 71.4544 70.4987C71.3592 70.1554 71.0336 70.187 70.7541 70.2664C70.464 70.3495 70.2272 70.5009 70.3366 70.8683C70.5198 71.1927 70.7923 71.1273 71.0664 71.0151Z" fill="#A5AC33"/>
<path d="M82.4546 30.237C82.7644 30.2108 83.1689 30.4413 83.3267 30.0104C83.5053 29.5201 83.017 29.4229 82.753 29.4275C82.4484 29.4345 82.2262 29.3724 82.0547 29.2523C80.8681 29.2695 79.6798 29.2987 78.4986 29.3487C79.3375 29.4867 80.1615 29.8035 81.0228 29.5459C81.7398 29.2977 81.8193 30.2948 82.4546 30.237Z" fill="#A5AC33"/>
<path d="M72.7444 70.0464C72.948 69.9181 72.9416 69.7292 72.8175 69.5754C72.7466 69.4899 72.5613 69.4151 72.4735 69.4513C72.2908 69.5204 72.1844 69.7077 72.2682 69.8987C72.352 70.0896 72.5441 70.1158 72.7392 70.0483L72.7444 70.0464Z" fill="#A5AC33"/>
<path d="M72.8481 71.3015C73.1451 71.2044 73.5604 71.1591 73.4909 70.7026C73.4307 70.324 73.1051 70.3383 72.8292 70.4454C72.5059 70.5689 72.0462 70.537 71.9908 71.0251C72.1955 71.4116 72.5247 71.4076 72.8481 71.3015Z" fill="#A5AC33"/>
<path d="M72.1734 29.8883C72.6573 29.8192 73.1394 29.7623 73.6286 29.7088C73.1447 29.7605 72.6573 29.8192 72.1734 29.8883C59.923 31.576 49.1491 38.1943 40.7149 46.9841C39.0712 48.6993 37.5229 50.4857 36.0613 52.3348C37.5229 50.4857 39.0712 48.6993 40.7149 46.9841C49.1491 38.1943 59.9212 31.5708 72.1734 29.8883Z" fill="#A5AC33"/>
<path d="M64.7552 39.9242C64.8801 39.9099 65.1899 39.901 64.949 39.6313C64.8621 39.534 64.7088 39.5003 64.5904 39.4312C64.8646 39.3363 65.1334 39.2433 65.4076 39.1484C66.1879 38.8956 65.4708 38.1713 65.8543 37.7954C66.3947 37.4636 67.3696 37.6703 67.4991 36.9018C67.6423 36.0534 65.6475 34.8103 64.5672 34.947C64.1062 34.6897 63.725 34.8506 63.4649 35.2417C63.2204 35.61 63.2752 35.9558 63.755 36.1312C63.8634 36.3079 64.1302 36.4645 63.8427 36.6913C63.5271 36.9395 62.9809 37.1865 63.2139 37.6037C63.5412 38.1909 64.1092 37.7511 64.5787 37.6407C64.6473 37.9411 64.5904 38.1692 64.2832 38.3392C64.0059 38.4931 63.3178 38.5519 63.7058 38.9907C63.9946 39.3133 64.076 40.0088 64.7569 39.9294L64.7552 39.9242Z" fill="#A5AC33"/>
<path d="M135.563 19.2336C135.32 19.1962 135.06 19.1765 134.785 19.1847C134.889 19.2817 134.989 19.3805 135.084 19.4863C135.24 19.3918 135.4 19.3075 135.562 19.2284L135.563 19.2336Z" fill="#8F9700"/>
<path d="M118.957 31.6166C118.909 31.8878 118.872 32.1554 118.84 32.4212C118.831 32.4821 118.824 32.548 118.818 32.614C118.786 32.8972 118.766 33.1818 118.759 33.468C118.758 33.5148 118.756 33.5616 118.755 33.6085C118.746 33.9414 118.75 34.276 118.774 34.6032C118.798 34.9945 118.838 35.3856 118.906 35.7676C119.031 36.4536 119.251 37.1068 119.542 37.7241C119.604 37.853 119.666 37.982 119.739 38.1073C119.75 38.1383 119.771 38.1657 119.787 38.1948C119.912 38.418 120.047 38.6376 120.196 38.8465C120.217 38.8739 120.233 38.9031 120.254 38.9304C120.505 39.278 120.785 39.6095 121.084 39.9111C121.102 39.9281 121.119 39.9452 121.139 39.9674C121.342 40.1632 121.557 40.3554 121.781 40.5266C122.943 41.4269 124.358 41.9675 125.881 41.9844C126.017 41.9838 126.152 41.9832 126.291 41.9756C126.302 41.9719 126.32 41.9716 126.332 41.9732C126.603 41.9546 126.876 41.9239 127.154 41.874C127.298 41.8472 127.444 41.8256 127.597 41.79C127.776 41.7453 127.924 41.6769 128.055 41.5966C129.178 41.428 130.325 41.077 131.444 40.5913C139.029 37.3289 147.532 29.8815 144.421 20.81C142.984 16.6242 139.046 13.5357 134.442 13.8444C134.325 13.8499 134.215 13.8709 134.1 13.8815C130.303 14.2525 127.18 16.5377 124.863 19.4122C124.335 20.0697 123.842 20.7613 123.4 21.4641C121.782 24.0214 120.043 27.1997 119.233 30.4208C119.147 30.7517 119.073 31.0841 119.012 31.418C119 31.4858 118.984 31.5606 118.972 31.6284L118.957 31.6166ZM135.558 19.2354C135.396 19.3145 135.237 19.3987 135.081 19.4933C134.985 19.3875 134.886 19.2887 134.781 19.1917C135.051 19.1853 135.315 19.198 135.56 19.2406L135.558 19.2354Z" fill="#424600"/>
<path d="M105.957 56.5693C105.816 56.4678 105.727 56.3826 105.676 56.3021C105.727 56.3826 105.816 56.4678 105.957 56.5693C106.06 56.7305 106.146 56.892 106.201 57.0522C106.146 56.892 106.06 56.7305 105.957 56.5693Z" fill="#8F9700"/>
<path d="M107.436 59.9536C107.344 59.9274 107.244 59.9101 107.152 59.884C107.249 59.9083 107.349 59.9256 107.436 59.9536Z" fill="#8F9700"/>
<path d="M105.047 55.6802C104.95 55.4999 104.845 55.3682 104.746 55.2694C104.852 55.3716 104.951 55.5051 105.047 55.6802Z" fill="#8F9700"/>
<path d="M120.789 52.6335C120.484 52.6405 120.178 52.6424 119.873 52.6494C120.18 52.6476 120.484 52.6405 120.791 52.6387L120.789 52.6335Z" fill="#8F9700"/>
<path d="M105.606 54.8211C105.629 54.767 105.653 54.718 105.684 54.6724C105.653 54.718 105.629 54.767 105.606 54.8211Z" fill="#8F9700"/>
<path d="M100.972 62.4805C100.677 62.8549 100.271 63.0301 99.8493 63.1761C100.271 63.0301 100.677 62.8549 100.972 62.4805Z" fill="#8F9700"/>
<path d="M98.1638 64.0548C98.3771 63.7841 98.5904 63.5134 98.8037 63.2428C99.0133 63.2686 99.223 63.2944 99.4327 63.3203C99.223 63.2944 99.0133 63.2686 98.8037 63.2428C98.5904 63.5134 98.3771 63.7841 98.1638 64.0548Z" fill="#8F9700"/>
<path d="M102.466 61.3035C102.586 61.3604 102.697 61.4434 102.795 61.5544C102.905 61.5161 103.022 61.4933 103.125 61.5036C103.016 61.4951 102.907 61.5212 102.795 61.5544C102.697 61.4434 102.588 61.3656 102.466 61.3035Z" fill="#8F9700"/>
<path d="M107.337 59.2411C107.457 59.2979 107.556 59.4141 107.62 59.5829C107.707 59.252 107.793 58.9211 107.881 58.5954C107.795 58.9263 107.708 59.2572 107.62 59.5829C107.551 59.4159 107.457 59.2979 107.337 59.2411Z" fill="#8F9700"/>
<path d="M115.586 52.9353C115.805 53.1083 116.08 53.2041 116.41 53.2521C116.257 53.6985 116.107 54.1501 115.959 54.5947C116.112 54.1483 116.263 53.6967 116.41 53.2521C116.082 53.2092 115.805 53.1083 115.586 52.9353Z" fill="#8F9700"/>
<path d="M115.119 52.1997L115.127 52.1909L115.119 52.1997Z" fill="#8F9700"/>
<path d="M118.902 50.612C118.946 50.8574 118.919 51.0694 118.828 51.2512C118.919 51.0694 118.939 50.8541 118.902 50.612Z" fill="#8F9700"/>
<path d="M118.828 51.2512C118.738 51.4331 118.584 51.5848 118.366 51.7065C118.586 51.59 118.745 51.4364 118.828 51.2512Z" fill="#8F9700"/>
<path d="M112.415 54.0269C112.349 53.8356 112.281 53.6392 112.164 53.506C112.285 53.6322 112.347 53.8305 112.415 54.0269C112.664 54.0451 112.867 54.1543 113.052 54.2811C112.865 54.1491 112.664 54.0451 112.415 54.0269Z" fill="#8F9700"/>
<path d="M112.654 56.1325C112.713 56.2511 112.816 56.3776 112.972 56.5205C113.214 56.4366 113.425 56.3116 113.639 56.1796C113.43 56.3097 113.212 56.4314 112.972 56.5205C112.816 56.3776 112.717 56.2441 112.654 56.1325Z" fill="#8F9700"/>
<path d="M116.872 53.6827C116.811 53.5069 116.745 53.3329 116.679 53.159C116.739 53.3348 116.806 53.5087 116.872 53.6827C116.957 53.5546 117.077 53.5421 117.22 53.5795C117.084 53.5455 116.957 53.5546 116.872 53.6827Z" fill="#8F9700"/>
<path d="M103.59 57.6783C103.489 57.5049 103.424 57.3362 103.399 57.1771C103.426 57.3413 103.489 57.5049 103.59 57.6783C104.095 57.6019 104.63 57.9029 104.81 58.1824C104.63 57.9029 104.098 57.5949 103.59 57.6783Z" fill="#8F9700"/>
<path d="M142.258 16.7252C142.527 17.043 142.708 17.2929 142.797 17.5167C142.708 17.2929 142.525 17.0378 142.258 16.7252Z" fill="#8F9700"/>
<path d="M140.303 7.53142C140.142 7.6105 140.001 7.64761 139.883 7.64792C140.001 7.64761 140.142 7.6105 140.303 7.53142Z" fill="#8F9700"/>
<path d="M138.6 13.2037C138.685 13.1745 138.769 13.1452 138.855 13.1212C138.771 13.1504 138.687 13.1796 138.6 13.2037Z" fill="#8F9700"/>
<path d="M141.582 8.58231C141.756 8.52208 141.956 8.47007 142.12 8.4655C141.956 8.47007 141.763 8.52543 141.582 8.58231Z" fill="#8F9700"/>
<path d="M146.087 27.6842C146.186 27.8003 146.398 27.8313 146.707 27.7878C147.028 28.1168 147.304 28.3513 147.544 28.4823C147.302 28.3461 147.033 28.115 146.707 27.7878C146.398 27.8313 146.186 27.8003 146.087 27.6842Z" fill="#8F9700"/>
<path d="M145.005 19.375C145.06 19.1417 145.069 18.8954 145.117 18.6588C145.069 18.8954 145.06 19.1417 145.005 19.375C144.826 19.437 144.65 19.5094 144.471 19.5714C144.65 19.5094 144.826 19.437 145.005 19.375Z" fill="#8F9700"/>
<path d="M134.091 13.873C134.408 13.7635 134.729 13.6522 135.046 13.5427C135.077 13.2422 135.198 13.0096 135.422 12.8566C135.198 13.0096 135.072 13.244 135.046 13.5427C134.729 13.6522 134.408 13.7635 134.091 13.873Z" fill="#8F9700"/>
<path d="M146.139 22.6005C146.046 22.6212 145.974 22.6345 145.904 22.6358C145.967 22.6312 146.046 22.6212 146.139 22.6005Z" fill="#8F9700"/>
<path d="M153.479 20.5403C153.329 20.4995 153.191 20.443 153.061 20.3724C153.186 20.4448 153.329 20.4995 153.479 20.5403Z" fill="#8F9700"/>
<path d="M151.856 16.8413C151.677 16.6832 151.448 16.6005 151.109 16.6774C151.448 16.6005 151.677 16.6832 151.856 16.8413Z" fill="#8F9700"/>
<path d="M154.029 18.0518C154.24 18.0828 154.452 18.1138 154.658 18.1466C154.446 18.1156 154.235 18.0846 154.029 18.0518C153.656 17.8797 153.371 17.9436 153.221 18.123C153.371 17.9436 153.656 17.8797 154.029 18.0518Z" fill="#8F9700"/>
<path d="M124.849 19.4056C124.672 19.3566 124.515 19.2605 124.417 19.0282C124.058 19.1523 123.695 19.2782 123.336 19.4023C123.695 19.2782 124.058 19.1523 124.417 19.0282C124.517 19.2657 124.674 19.3618 124.849 19.4056Z" fill="#8F9700"/>
<path d="M147.327 25.1767C147.506 25.1147 147.689 25.0457 147.866 24.9784C148.013 23.9375 149.414 24.0952 149.673 23.1546C149.667 23.3246 149.654 23.4912 149.637 23.6649C149.648 23.4931 149.667 23.3246 149.673 23.1546C149.614 22.932 149.598 22.7173 149.763 22.5272C149.85 22.7112 149.948 22.8915 150.03 23.0773C149.948 22.8915 149.857 22.7146 149.763 22.5272C149.641 22.1757 149.521 21.8293 149.399 21.4778C149.176 22.1456 148.862 22.7231 148.051 22.8187C146.101 23.6673 146.027 23.913 147.334 25.1801L147.327 25.1767Z" fill="#8F9700"/>
<path d="M154.976 20.5317C155.317 20.4425 155.656 20.2962 155.948 20.0849C155.927 19.9882 155.895 19.8951 155.85 19.8005C155.882 19.8936 155.922 19.99 155.948 20.0849C155.656 20.2962 155.318 20.4477 154.976 20.5317Z" fill="#8F9700"/>
<path d="M126.33 41.968C126.33 41.968 126.302 41.9719 126.29 41.9704C126.151 41.978 126.017 41.9838 125.879 41.9793C125.737 41.9765 125.599 41.972 125.46 41.9623C125.761 42.2344 126.136 42.4984 126.155 42.7927C126.253 44.1657 127.01 43.5563 127.651 43.3631C127.344 42.9021 127.197 42.4089 127.146 41.8706C126.869 41.9205 126.596 41.9512 126.325 41.9698L126.33 41.968Z" fill="#8F9700"/>
<path d="M152.492 19.7877C152.597 20.006 152.776 20.1815 152.993 20.3147C152.776 20.1815 152.597 20.006 152.492 19.7877C152.298 19.6697 152.109 19.6019 151.935 19.5755C152.114 19.6001 152.298 19.6697 152.492 19.7877Z" fill="#8F9700"/>
<path d="M79.9864 74.168C80.232 74.0077 80.4634 73.8234 80.7214 73.682C80.7307 73.453 80.7453 73.2222 80.758 72.9862C80.7487 73.2152 80.7289 73.4479 80.7214 73.682C80.4634 73.8234 80.232 74.0077 79.9864 74.168Z" fill="#8F9700"/>
<path d="M90.8317 50.0708C90.7596 50.4084 90.7353 50.7815 90.6155 51.0835C90.7353 50.7815 90.7596 50.4084 90.8317 50.0708Z" fill="#8F9700"/>
<path d="M101.889 43.1806C102.097 43.4908 102.233 43.8837 102.322 44.3277C101.939 44.4487 101.683 44.6127 101.559 44.835C101.683 44.6127 101.939 44.4487 102.322 44.3277C102.233 43.8837 102.097 43.4908 101.889 43.1806Z" fill="#8F9700"/>
<path d="M91.6803 45.3253L91.6733 45.3393L91.682 45.3304L91.6803 45.3253Z" fill="#8F9700"/>
<path d="M101.498 45.018C101.512 44.9554 101.533 44.8961 101.561 44.8401C101.533 44.8961 101.512 44.9554 101.498 45.018Z" fill="#8F9700"/>
<path d="M88.8927 54.0882C88.8139 53.8607 88.7615 53.6068 88.609 53.4222C88.7685 53.6101 88.8192 53.8589 88.8927 54.0882Z" fill="#8F9700"/>
<path d="M92.4873 44.1602C92.403 44.1894 92.3098 44.2101 92.2218 44.2289C91.9397 44.1645 91.6714 44.0374 91.3961 43.9243C91.6714 44.0374 91.9397 44.1645 92.2218 44.2289C92.3098 44.2101 92.4012 44.1842 92.4855 44.155L92.4873 44.1602Z" fill="#8F9700"/>
<path d="M93.2434 48.084C93.3277 48.0548 93.4174 48.0237 93.4999 47.9894C93.4156 48.0186 93.3259 48.0496 93.2434 48.084Z" fill="#8F9700"/>
<path d="M94.9986 54.0585C95.1529 53.9414 95.3302 53.8569 95.5129 53.7705C95.3285 53.8517 95.1529 53.9414 94.9986 54.0585Z" fill="#8F9700"/>
<path d="M86.3131 48.3758C86.4412 48.3025 86.5858 48.3277 86.7305 48.3876C86.5858 48.3277 86.4394 48.2973 86.3131 48.3758C86.1431 48.1915 85.9648 48.1201 85.7745 48.0991C85.9648 48.1201 86.1448 48.1967 86.3131 48.3758Z" fill="#8F9700"/>
<path d="M89.7384 69.0496C89.7384 69.0496 89.7771 69.042 89.8018 69.045C89.7409 68.8693 89.6801 68.6935 89.6192 68.5177C89.6801 68.6935 89.7409 68.8693 89.8018 69.045C89.7789 69.0472 89.7613 69.0475 89.7384 69.0496Z" fill="#8F9700"/>
<path d="M89.7385 69.0496C89.6593 69.0597 89.5925 69.0712 89.5257 69.0828C89.5925 69.0712 89.6628 69.0527 89.7385 69.0496Z" fill="#8F9700"/>
<path d="M87.814 71.2499C88.0039 71.2016 88.1884 71.1377 88.3657 71.0358C88.1884 71.1377 88.0039 71.2016 87.814 71.2499Z" fill="#8F9700"/>
<path d="M145.454 18.0098C145.568 17.9818 145.679 17.9608 145.786 17.9642C145.679 17.9608 145.568 17.9818 145.454 18.0098Z" fill="#8F9700"/>
<path d="M78.2467 76.3911C78.1661 76.4653 78.1478 76.6511 78.1682 76.8293C78.5081 76.8564 78.9501 76.8713 79.5539 76.8417L79.5645 76.8381C78.4353 76.7484 78.1997 76.4942 78.2432 76.3981L78.2467 76.3911Z" fill="#8F9700"/>
<path d="M85.2922 48.1387C85.2061 48.1627 85.1147 48.1885 85.0251 48.2196C85.1147 48.1885 85.2043 48.1575 85.2922 48.1387Z" fill="#8F9700"/>
<path d="M86.7385 47.3196C86.7089 47.3704 86.6828 47.4315 86.655 47.4875C86.6828 47.4315 86.7089 47.3704 86.7385 47.3196Z" fill="#8F9700"/>
<path d="M84.0798 54.2548C83.8944 54.1627 83.7108 54.0758 83.5487 54.0508C83.7108 54.0758 83.8944 54.1627 84.0798 54.2548Z" fill="#8F9700"/>
<path d="M86.5563 57.8957C86.5298 57.8701 86.505 57.8498 86.4785 57.8242C85.0623 57.724 83.6361 57.7314 82.214 57.8358C82.1495 57.9392 82.0849 58.0426 82.0133 58.1426C81.6046 58.7357 81.2531 59.4941 80.2741 59.173C80.2097 59.2938 80.1505 59.4127 80.0842 59.5282C80.583 59.9287 81.213 60.1969 81.4614 60.8461C81.7222 60.8832 81.8394 61.0684 81.9251 61.2819C81.9534 61.2953 81.9869 61.3068 82.0169 61.3254C83.7224 60.5729 85.4297 59.8256 87.1423 59.0938C87.6088 58.446 86.9508 58.2338 86.551 57.8975L86.5563 57.8957Z" fill="#8F9700"/>
<path d="M112.683 44.2087C112.597 44.3367 112.574 44.5417 112.531 44.7071C112.576 44.5468 112.594 44.3437 112.683 44.2087Z" fill="#8F9700"/>
<path d="M107.209 27.2195C107.18 27.2703 107.162 27.3226 107.149 27.3852C107.014 27.4552 106.832 27.4947 106.696 27.5768C106.827 27.4965 107.008 27.457 107.149 27.3852C107.162 27.3226 107.183 27.2633 107.209 27.2195Z" fill="#8F9700"/>
<path d="M112.877 22.7162C112.383 22.9103 112.231 22.7604 112.166 22.5223C112.236 22.7586 112.383 22.9103 112.877 22.7162Z" fill="#8F9700"/>
<path d="M114.929 23.1868C114.819 23.057 114.758 22.8639 114.69 22.6848C114.655 22.6854 114.623 22.6964 114.6 22.7158C114.625 22.7015 114.653 22.6976 114.69 22.6848C114.751 22.8606 114.817 23.0518 114.929 23.1868Z" fill="#8F9700"/>
<path d="M114.115 18.6175C113.936 18.5634 113.77 18.4934 113.638 18.383C113.77 18.4934 113.938 18.5685 114.115 18.6175Z" fill="#8F9700"/>
<path d="M94.7447 62.2106C94.9237 62.0966 95.0742 61.9345 95.2177 61.769C95.2014 61.6878 95.178 61.6033 95.1441 61.5224C95.1727 61.6051 95.2014 61.6878 95.2177 61.769C95.0742 61.9345 94.9166 62.0932 94.7447 62.2106Z" fill="#8F9700"/>
<path d="M100.182 50.4756C100.303 50.4162 100.422 50.3691 100.538 50.3289C100.422 50.3691 100.303 50.4162 100.182 50.4756C99.5794 50.7824 98.9719 51.0911 98.3715 51.4032C98.9737 51.0963 99.5812 50.7876 100.182 50.4756Z" fill="#8F9700"/>
<path d="M107.372 49.179C107.141 49.0564 106.915 48.9321 106.684 48.8269C106.915 48.9321 107.141 49.0564 107.372 49.179Z" fill="#8F9700"/>
<path d="M116.687 19.6026C116.459 19.6932 116.234 19.7595 116.017 19.7477C116.234 19.7595 116.459 19.6932 116.687 19.6026Z" fill="#8F9700"/>
<path d="M108.802 44.7822C108.62 44.5964 108.462 44.3616 108.345 44.0603C107.86 44.1241 107.374 44.188 106.89 44.2571C107.376 44.1932 107.862 44.1293 108.345 44.0603C108.462 44.3616 108.62 44.5964 108.802 44.7822Z" fill="#8F9700"/>
<path d="M107.056 42.0925C106.753 42.5797 106.386 42.886 105.982 43.0663C106.386 42.886 106.753 42.5797 107.056 42.0925Z" fill="#8F9700"/>
<path d="M106.796 43.9831C106.996 43.5203 107.233 43.2353 107.506 43.1006C107.233 43.2353 106.996 43.5203 106.796 43.9831C106.253 44.1711 105.71 44.3591 105.17 44.54C105.115 44.4665 105.056 44.3652 105.003 44.2794C105.056 44.3652 105.115 44.4665 105.17 44.54C104.862 44.5367 104.552 44.5976 104.239 44.6481C104.547 44.5994 104.857 44.5385 105.165 44.5419C105.708 44.3539 106.251 44.1659 106.79 43.9849L106.796 43.9831Z" fill="#8F9700"/>
<path d="M106.495 44.7702C106.618 44.5947 106.745 44.4174 106.891 44.2571C106.858 44.1641 106.828 44.0762 106.796 43.9831C106.828 44.0762 106.858 44.1641 106.891 44.2571C106.745 44.4174 106.621 44.5877 106.495 44.7702Z" fill="#8F9700"/>
<path d="M111.885 45.0061C112.009 44.8878 112.139 44.785 112.299 44.7354C112.139 44.785 112.009 44.8878 111.885 45.0061Z" fill="#8F9700"/>
<path d="M115.731 42.4066C115.669 42.2257 115.601 42.0466 115.533 41.8675C115.596 42.0484 115.664 42.2275 115.731 42.4066Z" fill="#8F9700"/>
<path d="M120.847 52.9723C120.938 53.2359 121.141 53.2931 121.37 53.2891C121.141 53.2931 120.943 53.2341 120.847 52.9723Z" fill="#8F9700"/>
<path d="M122.644 43.001C122.508 43.0016 122.392 42.9897 122.295 42.9654C122.392 42.9897 122.508 43.0016 122.644 43.001Z" fill="#8F9700"/>
<path d="M141.93 38.7157C142.127 38.7921 142.298 38.8602 142.45 38.9234C142.298 38.8602 142.127 38.7921 141.93 38.7157Z" fill="#8F9700"/>
<path d="M82.9833 54.6344C83.0309 54.3285 83.1268 54.1622 83.255 54.0889C83.1268 54.1622 83.0309 54.3285 82.9833 54.6344C82.9395 54.6612 82.8956 54.688 82.8517 54.7147C82.8956 54.688 82.9395 54.6612 82.9833 54.6344Z" fill="#8F9700"/>
<path d="M146.929 21.4184C146.967 21.3761 147.004 21.3287 147.041 21.2812C147.004 21.3287 146.967 21.3761 146.929 21.4184Z" fill="#8F9700"/>
<path d="M91.5642 63.3406C91.814 63.2946 92.074 63.1931 92.3322 63.0863C92.074 63.1931 91.814 63.2946 91.5642 63.3406Z" fill="#8F9700"/>
<path d="M92.4383 66.9399C92.2766 67.0016 92.115 67.0634 91.9515 67.1199C92.115 67.0634 92.2784 67.0068 92.4383 66.9399C92.4165 66.5017 92.2617 66.2252 92.0423 66.0349C92.2599 66.2201 92.4147 66.4965 92.4383 66.9399Z" fill="#8F9700"/>
<path d="M120.283 44.1132C120.098 43.7316 120.128 43.3913 120.242 43.0738C120.128 43.3913 120.096 43.7264 120.283 44.1132Z" fill="#8F9700"/>
<path d="M135.864 45.9042C135.911 45.8878 135.958 45.8714 136.001 45.8568C135.953 45.8732 135.906 45.8896 135.864 45.9042C135.595 45.6905 135.409 45.4597 134.951 45.4329C134.311 45.3937 134.036 44.9738 134.762 44.4966C134.642 44.4397 134.526 44.3759 134.406 44.319C133.857 44.5088 133.309 44.6986 132.761 44.8884C132.41 46.0057 131.447 46.0727 130.568 45.9718C129.874 45.8937 129.545 45.4227 130.301 44.8427C130.294 44.5672 130.313 44.1612 129.878 44.4392C129.025 44.9775 127.998 45.2692 127.389 46.1517C127.419 46.2396 127.46 46.3239 127.491 46.4117C127.848 46.4731 128.206 46.5346 128.652 46.6118C128.485 47.2197 128.053 47.4213 127.576 47.5804C127.194 48.0776 126.615 48.2316 126.06 48.418C126.11 48.5974 126.164 48.7698 126.214 48.9493C126.405 49.3984 126.473 49.8324 126.047 50.2055C125.635 50.8575 126.5 51.5308 126.301 52.1843C126.301 52.1843 126.317 52.1788 126.322 52.177C127.365 51.7463 128.409 51.3156 129.451 50.8798C128.992 50.7317 128.52 50.629 128.714 50.0986C128.934 49.4898 129.958 49.3437 130.744 49.396C131.064 49.4181 131.385 49.4923 131.755 49.5553C131.498 48.8802 131.702 47.9526 130.57 47.9047C130.432 47.9001 130.281 47.53 130.456 47.4576C130.88 47.2822 131.353 47.1647 131.808 47.1343C132.183 47.1087 132.481 47.3705 132.302 47.7741C132.018 48.4221 132.392 48.8369 132.854 49.03C133.02 49.0999 133.161 49.1668 133.282 49.241C133.378 49.196 133.471 49.158 133.568 49.113C133.731 49.0391 133.896 48.9703 134.065 48.8946C134.065 48.8946 134.07 48.8928 134.076 48.8909C134.443 48.7233 134.815 48.5539 135.18 48.3812C135.088 48.2164 134.995 48.0169 134.904 47.7706C134.396 46.4237 134.161 46.511 135.86 45.9112L135.864 45.9042Z" fill="#8F9700"/>
<path d="M127.49 47.3149C127.492 47.0133 127.494 46.7116 127.496 46.4099C127.494 46.7116 127.492 47.0133 127.49 47.3149Z" fill="#8F9700"/>
<path d="M87.9216 62.1123C88.0048 62.1992 88.0758 62.302 88.1294 62.4398C88.5901 62.9692 89.3473 62.6665 89.8705 63.018C90.0515 62.9612 90.2343 62.9095 90.4154 62.8526C91.1047 62.695 91.664 62.2814 92.2448 61.9125C92.2969 61.7902 92.3491 61.668 92.403 61.5509C92.4881 61.0293 92.3451 60.6504 92.0986 60.3305C90.7039 60.9233 89.3145 61.5143 87.9216 62.1123Z" fill="#8F9700"/>
<path d="M113.966 39.1158C113.755 39.1888 113.543 39.2739 113.328 39.3366C113.545 39.2791 113.75 39.1906 113.966 39.1158Z" fill="#8F9700"/>
<path d="M69.8971 53.9253C69.82 53.9925 69.75 54.063 69.6835 54.1439C69.5557 54.2692 69.4278 54.3945 69.3017 54.5077C69.4278 54.3945 69.5539 54.2641 69.6835 54.1439C69.75 54.063 69.8253 53.9907 69.8971 53.9253Z" fill="#8F9700"/>
<path d="M80.1885 62.132C79.9679 62.0404 79.7813 62.0471 79.6985 62.3537C79.8618 62.2798 80.0252 62.2059 80.1885 62.132Z" fill="#8F9700"/>
<path d="M15.8302 97.4129C17.2678 101.037 20.9389 102.313 24.8733 101.843C25.3431 101.785 25.8233 101.705 26.2999 101.598C32.555 100.209 38.7056 97.7495 44.5812 95.2466C45.3418 94.9196 46.1023 94.5927 46.8593 94.2554C48.3751 93.5859 49.8819 92.8906 51.3781 92.1817C55.1203 90.4058 58.8108 88.5146 62.4639 86.5495C63.8279 85.8169 65.1812 85.0705 66.5328 84.319C66.9979 84.0595 67.4631 83.8001 67.9229 83.5425C68.8076 83.0452 69.6869 82.5498 70.5698 82.0474C71.1174 81.7362 71.6702 81.4233 72.2161 81.107C72.9988 80.6565 73.7816 80.2061 74.5626 79.7505C75.1435 79.4162 75.7227 79.0768 76.3036 78.7426C76.2657 78.582 76.2261 78.4163 76.1882 78.2557C76.1274 78.08 76.0647 77.899 76.0039 77.7233C75.6475 77.5977 75.2912 77.4721 74.9366 77.3517C74.6367 77.2529 74.2265 77.2618 74.3751 76.753C74.4995 76.3278 74.7555 76.1466 75.226 76.2095C76.8735 76.4323 77.8216 74.9926 79.1817 74.5218C79.1513 74.4339 79.1209 74.346 79.0887 74.2529C78.1722 74.0955 77.3191 73.6093 76.3086 73.9475C75.9553 74.0698 75.3033 73.9597 75.8558 73.2706C75.9433 73.1651 76.1114 73.0027 76.0846 72.9425C74.8827 70.5277 77.2673 71.5837 77.9933 71.0545C78.2388 70.8769 78.6695 70.7567 78.8619 71.159C79.0632 71.5698 78.8184 71.8861 78.4321 72.0662C78.0562 72.2426 77.6609 72.3795 77.1162 72.5969C78.279 72.7154 79.1837 72.6686 79.708 71.6419C79.9503 70.2612 80.7964 69.1752 81.5189 68.022C81.9688 67.8547 82.4902 67.5874 82.8966 67.8404C84.1069 68.5908 85.1578 67.926 86.2616 67.5844L86.3934 67.5388L86.5252 67.4931C87.1082 67.2161 87.6645 67.1856 88.2596 67.5064C88.6817 67.7366 89.1978 68.0847 89.537 67.3421C88.7576 67.1372 88.4458 66.7993 89.1551 66.1196C89.4213 65.8654 89.6875 65.5938 89.7063 65.1878C88.962 64.6408 88.7624 63.2626 87.3085 63.6501C87.5999 64.134 88.6067 63.7507 88.4012 64.4876C88.2147 65.1426 87.5532 64.9201 87.0575 64.7501C86.3942 64.5224 85.7305 64.8563 85.0767 64.7411C84.4915 64.6369 83.7846 64.7947 83.5057 64.0403C81.0169 65.1392 78.5387 66.2517 76.0748 67.3883C76.4354 67.9524 75.563 68.127 75.6113 68.5735C75.5903 68.9223 75.3893 69.1771 75.1388 69.4086C74.7429 69.7656 74.2506 70.2197 73.8217 69.714C73.4743 69.3074 74.0973 68.9239 74.4011 68.7782C74.8489 68.5711 74.9386 68.2332 74.9947 67.8838C74.0341 68.3321 73.0735 68.7804 72.1147 69.2339C56.6384 76.5769 41.7943 85.2005 27.701 94.9014C26.0277 96.0538 24.2651 93.5031 25.9349 92.3577C31.6126 88.4472 37.4145 84.7252 43.3266 81.185C41.1785 81.4944 39.0542 81.9577 36.9519 82.6044C35.0149 83.1997 33.9968 80.2755 35.9408 79.6836C40.0029 78.4395 44.1737 77.7483 48.4131 77.6644C48.6824 77.658 48.9134 77.7112 49.1164 77.803C54.7012 74.6135 60.3785 71.5888 66.1483 68.7289C62.6979 68.8408 59.2646 69.1725 55.8467 69.7362C53.8465 70.0639 53.6796 66.9724 55.6622 66.645C60.6281 65.8291 65.6161 65.486 70.6331 65.6192C71.0804 65.6322 71.4335 65.7994 71.6954 66.0445C72.8474 65.501 74.003 64.9678 75.1586 64.4347C74.9308 64.3225 74.7119 64.2188 74.8249 63.9481C75.0438 63.4208 75.6539 63.5801 76.1138 63.6467C77.2504 63.809 76.7696 62.5224 77.4231 62.2614C77.4016 61.8752 78.1786 61.6641 77.6882 61.1855C76.5216 60.0494 77.2776 59.8456 78.3829 59.7814C78.5677 59.7695 78.7451 59.685 78.9297 59.6384C78.9003 59.0929 79.0138 58.6194 79.2739 58.2109C78.6284 58.3244 77.9811 58.45 77.3393 58.6085C76.9472 58.7037 76.5966 58.663 76.2965 58.5295C76.2795 58.6338 76.2537 58.747 76.2069 58.8674C75.8683 59.7314 75.8607 60.8861 74.1308 61.0391C74.9219 61.4657 75.4808 61.2723 75.8593 61.9054C74.6016 62.1092 73.5873 63.3577 72.2114 62.2651C71.9882 62.3366 71.7665 62.3612 71.5753 62.1843C70.4229 62.0274 70.819 61.074 70.6533 60.4078C69.6616 60.3227 68.9582 59.2115 67.713 59.7931C67.2459 60.0127 67.3806 59.225 67.3732 58.8455C66.5785 58.7328 66.4698 58.1799 66.4331 57.2895C67.0593 57.8022 67.4242 58.1911 67.3732 58.8455C67.6964 58.7047 68.1151 58.3282 67.8817 58.1485C67.0116 57.4598 67.4375 56.1661 66.5379 55.5455C66.0321 55.159 65.8446 55.9475 65.4215 55.8509C65.6828 54.0816 65.9268 53.9508 67.9931 54.4454C68.5332 54.3684 68.6804 53.9238 68.8789 53.5252C68.9584 52.9361 69.0396 52.3522 69.1497 51.5615C70.4372 53.2173 71.4247 52.2328 72.4273 51.4111C72.9294 51.4631 73.3851 51.7221 73.386 52.2023C73.3856 52.764 72.7429 52.7491 72.346 52.9328C72.1667 52.9949 71.9822 53.0587 71.803 53.1208C71.2978 53.7762 71.1375 54.7116 69.9245 54.7378C69.3312 54.7464 68.6566 55.3388 69.3636 56.1361C69.78 56.6056 69.4261 57.2376 69.7246 57.7247C70.4095 57.725 71.0166 56.7159 71.5475 57.1921C72.1598 57.7501 70.8723 58.3116 71.1 59.0375C71.6094 58.8206 71.9046 58.3942 72.2244 57.9709C72.4027 57.7355 72.5623 57.3097 72.9879 57.5329C73.4735 57.7932 73.2379 58.17 73.0532 58.506C72.8719 58.8351 72.6624 59.1508 72.4617 59.475C72.9955 59.8401 73.2375 59.3627 73.5512 59.092C73.6374 58.7611 73.7289 58.4285 73.815 58.0976C73.6695 57.2507 74.1093 56.8669 74.8713 57.1241C75.0125 57.1736 75.1589 57.2214 75.3018 57.2761C75.1625 56.6007 75.4367 55.8921 76.3247 55.6774C77.8439 55.3078 79.3689 55.0404 80.898 54.87C81.4854 54.4351 82.3525 54.2623 82.901 53.8003C83.2708 53.487 83.8709 53.4298 84.3665 53.2583C84.3038 53.0773 84.243 52.9016 84.1803 52.7206C83.5984 52.2332 82.8708 52.7919 82.2634 52.4869C81.6596 52.1923 82.2252 51.0123 81.1656 51.0723C81.2652 51.5646 81.2624 52.0172 80.5722 52.0187C80.0757 52.0169 79.9577 52.3241 79.8965 52.71C80.1989 52.6458 80.4894 52.6321 80.5585 53.0192C80.5931 53.2388 80.4619 53.3884 80.2276 53.3595C79.8153 53.3112 79.8875 52.991 79.8965 52.71C79.2037 52.8919 78.5089 52.9993 77.8037 52.8382C77.4507 53.0124 76.9611 52.9793 76.8124 53.4708C77.3054 53.4796 77.0237 54.0981 77.4963 54.2355C78.3058 54.4763 77.819 54.9459 77.418 55.0326C75.5679 55.4183 74.2227 57.3139 72.0375 56.6636C72.0357 55.0722 73.8774 55.7025 74.5312 54.8625C74.5609 54.5049 74.7206 54.0965 74.3565 53.8462C73.2307 53.0839 74.098 52.9458 74.7147 52.7149C75.2881 52.6148 75.8686 52.5181 76.4421 52.418C76.1714 52.8127 75.8988 53.2023 75.6281 53.5971C75.8988 53.2023 76.1714 52.8127 76.4421 52.418C77.186 51.6337 77.771 50.7654 78.1332 49.7311C78.4174 48.9149 78.9959 48.4542 79.8799 49.1149C80.4459 48.9421 81.0208 48.7779 81.4284 48.301C82.2288 47.2366 82.6838 48.619 83.3418 48.5417L83.4789 48.4943L83.616 48.4468C84.098 48.3726 84.5748 48.3002 85.055 48.2208C85.6335 47.4532 84.8276 47.2227 84.4324 46.7633C85.1474 46.4752 85.8042 46.1726 86.4931 45.9457C87.0959 45.7428 87.1873 45.3928 86.9784 44.8746C86.5842 44.9127 86.1882 44.9455 85.794 44.9836C83.9746 44.8782 82.7138 46.1135 81.2425 46.8602C80.8787 46.9861 80.515 47.112 80.1565 47.2361C79.9968 47.3377 79.8336 47.429 79.6828 47.5391C79.2251 47.8712 78.5148 48.3776 78.2185 47.9822C77.791 47.4124 78.3723 46.8233 78.9583 46.4526C79.6877 45.899 80.4118 45.3474 81.1412 44.7938C81.8984 43.8775 82.8002 44.5553 83.5807 44.644C84.3066 44.7285 84.9511 44.7486 85.6062 44.4581C85.912 44.3522 86.2142 44.2361 86.5183 44.1424C87.6362 43.8075 87.1029 44.4668 86.9749 44.8816C87.5034 44.6176 88.0227 44.5999 88.5194 44.9432C88.5786 44.8243 88.636 44.7002 88.7005 44.5795C88.3424 44.1419 86.9604 43.8504 88.5111 43.1457C88.7029 41.8578 90.0091 41.4867 90.6873 40.5978C90.6569 40.5099 90.6335 40.4253 90.5978 40.3393C90.161 38.7364 90.6814 37.9715 92.372 38.0289C92.9391 38.0468 93.7401 36.7622 94.1285 38.2082C93.4657 38.3913 93.2561 38.6897 93.8611 39.1923C94.8132 38.8048 95.597 38.8519 95.9641 39.9637C96.9496 39.8599 97.988 39.483 98.7282 40.5467C98.9039 40.7985 99.255 40.6017 99.5257 40.5312C99.706 40.3356 99.6731 40.1212 99.6014 39.8971C99.2947 39.8296 98.842 39.8011 99.1493 39.3415C99.4444 38.8978 99.7754 39.2059 100.062 39.4367C100.368 39.4348 100.673 39.4278 100.979 39.426C101.693 39.2194 101.987 39.6269 102.153 40.2065C102.291 40.9461 103.078 41.241 103.349 41.8881C104.025 41.625 103.858 42.3543 104.237 42.6285C104.744 41.9437 105.145 41.0058 106.281 41.3709C106.303 41.1955 106.332 41.0233 106.354 40.8479C106.263 40.6362 106.154 40.4422 105.887 40.4191C105.039 39.9138 105.233 39.0419 105.144 38.2737C104.63 38.2549 104.119 38.2291 103.605 38.2103C103.241 38.6777 104.608 38.7719 103.855 39.2582C103.397 39.5556 102.934 39.1719 102.568 38.9165C102.082 38.5695 101.94 38.1265 102.162 37.4708C102.334 36.9599 103.4 36.8859 102.857 36.084C102.579 35.8791 102.309 35.6775 102.031 35.4726C101.642 35.8156 101.3 36.2931 100.671 35.9434C100.24 35.3459 99.3681 35.9487 98.9317 35.353C98.0262 35.5854 97.2209 36.1072 96.1718 35.8394C95.4013 35.643 95.4053 36.6779 94.9389 37.0361C94.6348 37.1298 94.3329 37.298 94.0252 37.0572C93.7403 36.7969 93.2239 37.3346 93.0184 36.7921C93.8781 36.2571 94.4908 35.6051 94.541 34.5051C94.5599 34.1165 94.8584 33.3243 95.3063 33.4587C96.0964 33.6946 96.9017 33.4795 97.6302 33.7252C97.9036 33.8158 97.6963 34.206 97.4031 34.3653C96.9555 34.6071 96.3778 34.5755 95.9791 35.0609C96.5924 35.4854 97.0845 35.014 97.6016 34.9045C98.0465 34.8084 98.5181 34.4483 98.8368 35.079C99.5948 34.915 100.355 34.7562 101.112 34.5922C101.59 34.6238 102.075 34.7281 102.534 34.656C102.835 34.604 103.431 34.5884 102.961 33.8598C102.577 33.2632 103.576 33.0101 103.754 32.4852C103.813 32.3663 103.871 32.2423 103.93 32.1233C103.811 31.6781 103.521 31.1302 104.454 31.3515C104.835 31.4454 104.787 31.1724 104.742 30.9391C104.586 30.7962 104.432 30.6585 104.277 30.5155C103.67 30.7254 103.066 30.9058 102.458 30.5315C101.873 30.7341 101.281 31.0199 100.729 30.2962C101.366 30.1569 101.953 30.0288 102.541 29.9008C102.443 29.4656 101.979 29.5049 101.715 29.2893C101.198 29.3295 100.921 28.6322 100.345 28.8606C100.033 28.9163 99.5933 29.2827 99.4544 29.0008C99.3938 28.8771 99.3844 28.7646 99.4138 28.6618C98.7012 28.7521 97.9885 28.8252 97.2722 28.8879C96.556 28.9506 95.8414 29.0011 95.1232 29.0413L95.1127 29.0449C94.3998 29.0833 93.6852 29.1165 92.9687 29.1445C92.9582 29.1482 92.9511 29.1448 92.9388 29.1433C92.2276 29.1695 91.5181 29.1836 90.8086 29.1976C90.791 29.1979 90.7681 29.2 90.7505 29.2003C90.0516 29.2107 89.3473 29.2229 88.6448 29.223C88.6043 29.2254 88.5621 29.2227 88.5216 29.2251C87.8613 29.2279 87.2011 29.2307 86.5408 29.2335C85.0548 29.2384 83.567 29.2382 82.0811 29.2605C82.2525 29.3807 82.4747 29.4427 82.7793 29.4357C83.0416 29.4259 83.5316 29.5284 83.353 30.0186C83.1952 30.4495 82.7889 30.2139 82.4809 30.2452C81.8457 30.303 81.7609 29.3077 81.0491 29.5541C80.1878 29.8117 79.3585 29.4967 78.5249 29.3569C78.0074 29.3797 77.4846 29.4044 76.9654 29.4394C76.4204 29.5875 75.8774 29.7755 75.3691 29.552C74.8921 29.5898 74.4187 29.6379 73.9454 29.6859C73.8486 29.6963 73.7571 29.7048 73.6603 29.7152C73.1764 29.7669 72.689 29.8256 72.2052 29.8947C59.9547 31.5824 49.1808 38.2007 40.7467 46.9905C39.1029 48.7057 37.5547 50.4921 36.093 52.3412C35.1157 53.5768 34.1807 54.8325 33.274 56.1189C29.6509 61.2576 26.5634 66.7666 23.7759 72.3918C22.7295 74.5023 21.7236 76.6277 20.7477 78.7544C20.4137 79.4779 20.0815 80.2065 19.7527 80.9282C18.7595 83.1071 17.7804 85.2928 16.8665 87.4964C16.7345 87.8142 16.6077 88.1301 16.4845 88.4564C16.422 88.617 16.3595 88.7776 16.3041 88.9415C16.1862 89.266 16.0753 89.5938 15.9698 89.9198C15.4472 91.5654 15.1309 93.261 15.2937 94.9762C15.3122 95.1492 15.3308 95.3222 15.3599 95.4916C15.4421 96.0189 15.5593 96.511 15.7115 96.9677C15.7634 97.1176 15.8153 97.2675 15.8725 97.4156L15.8302 97.4129ZM82.7738 66.0361C82.7137 65.6749 82.7063 65.2954 82.9881 65.001C83.2114 64.9295 83.4142 64.9866 83.4786 65.1727C83.6056 65.5398 83.5954 65.9196 83.2271 66.1687C83.0692 66.2755 82.8157 66.2764 82.7738 66.0361ZM74.2551 70.386C74.5718 70.3458 74.9301 70.5112 75.0376 70.8388C75.1844 71.28 74.8599 71.5023 74.4804 71.6337C74.1377 71.7523 73.9643 71.6097 73.908 71.2935C74.0647 70.9787 73.6445 70.4642 74.2551 70.386ZM72.4786 69.4495C72.5682 69.4185 72.7535 69.4933 72.8226 69.5735C72.9467 69.7274 72.9513 69.9111 72.7495 70.0446C72.5544 70.1121 72.3624 70.086 72.2786 69.895C72.1965 69.7092 72.3011 69.5167 72.4838 69.4477L72.4786 69.4495ZM72.8222 70.4421C73.098 70.335 73.4254 70.3259 73.4839 70.6993C73.5586 71.1539 73.138 71.2011 72.841 71.2981C72.5124 71.4061 72.1849 71.4152 71.9838 71.0217C72.0392 70.5337 72.4989 70.5655 72.8222 70.4421ZM70.7523 70.2613C71.0318 70.1819 71.3574 70.1502 71.4526 70.4935C71.5209 70.742 71.2983 70.9175 71.0646 71.0099C70.7906 71.1222 70.5145 71.1946 70.3349 70.8631C70.2254 70.4958 70.4623 70.3443 70.7523 70.2613ZM70.2749 63.5781C70.7473 63.3566 71.0885 63.609 71.2494 64.0569C71.4157 64.5031 71.3335 64.9136 70.8255 65.0663C70.3122 65.2208 69.9565 64.8924 69.6556 64.6203C69.5378 64.0242 69.892 63.7511 70.2696 63.5799L70.2749 63.5781ZM69.3063 41.1333C69.3709 41.6609 69.0806 42.0161 68.5976 42.2238C68.4219 42.2962 68.2409 42.3531 68.0634 42.4203C68.3873 42.725 68.699 43.0455 68.2294 43.4628C68.1155 43.5601 67.7743 43.6145 67.737 43.558C67.4192 43.0833 67.5702 42.701 68.0652 42.4255C68.0239 42.2893 67.9721 42.1567 67.9485 42.0201C67.8426 41.339 68.3026 41.116 68.8441 40.9749C69.034 40.9265 69.2858 40.9204 69.3099 41.1436L69.3063 41.1333ZM67.9079 38.2192C67.8911 37.4203 68.6866 37.0407 69.3881 36.85C69.9102 36.704 70.4881 36.7702 71.039 36.7416C71.2985 38.1222 69.9861 38.3218 69.2373 38.8531C68.9339 39.0681 67.924 38.8967 67.9132 38.2173L67.9079 38.2192ZM73.1748 48.4199C72.7356 48.6009 72.3449 48.6319 72.0562 47.6956C72.0437 47.6594 72.0105 47.393 72.3884 47.2738C72.8875 47.1126 73.1695 47.4839 73.4266 47.8001C73.6801 48.106 73.4681 48.2952 73.1748 48.4199ZM72.509 38.5832C72.6102 39.0633 72.4752 39.4748 71.8868 39.4122C71.5185 39.3718 71.0474 39.8185 70.7537 39.2429C70.9109 38.7079 71.2805 38.36 71.7847 38.1623C72.1853 38.0063 72.4347 38.2152 72.5107 38.5883L72.509 38.5832ZM75.0999 43.1685C74.8701 43.3233 74.5841 43.1965 74.5476 42.9545C74.4819 42.543 74.5218 42.1124 74.9132 41.8959C75.2364 41.755 75.4639 41.8326 75.534 42.0862C75.658 42.5296 75.4788 42.9158 75.0999 43.1685ZM73.1308 38.9642C72.7962 38.6284 73.1597 38.1437 73.5017 37.9037C74.3682 37.3028 74.5515 38.2929 75.3868 38.7274C74.4017 38.9005 73.7754 39.6152 73.1256 38.966L73.1308 38.9642ZM76.9836 40.9186C76.7327 40.7566 76.7453 40.4859 76.9169 40.3165C77.6331 39.6055 78.1318 40.637 78.804 40.5664C78.238 41.046 77.648 41.337 76.9836 40.9186ZM92.5355 33.2484C92.3069 33.287 92.0621 33.2792 91.8313 33.2606C91.435 33.2242 90.8355 33.3854 90.8129 32.8085C90.7831 32.2109 91.4085 32.5849 91.7017 32.4256C91.8667 32.3395 92.0602 32.3015 92.2394 32.2394L92.243 32.2498C92.3326 32.2187 92.4221 32.1704 92.5119 32.1567C92.9623 32.1107 93.182 31.3979 93.756 31.726C93.8214 31.7613 93.8326 31.8789 93.8718 31.958C93.1278 32.094 93.2779 33.1246 92.5426 33.2518L92.5355 33.2484ZM85.836 29.4485C86.2772 29.3247 86.5481 29.5957 86.5314 30.0761C86.5241 30.345 86.6728 30.4845 86.8954 30.6159C87.178 30.7843 87.7726 30.3701 87.7604 31.0169C87.7554 31.3949 87.3899 31.5157 87.0666 31.6392C86.492 31.8554 86.1697 31.5213 85.8911 31.1256C85.7615 30.9389 85.6986 30.706 85.6165 30.5029C85.5438 30.1054 85.1767 29.6246 85.836 29.4485ZM88.3645 35.798C87.9553 35.9802 87.5387 35.7828 87.4398 35.4118C87.2906 34.8614 87.416 34.3028 87.8997 33.9096C88.4434 33.8429 88.6826 34.1075 88.877 34.5496C89.1446 35.1691 88.9107 35.551 88.368 35.791L88.3645 35.798ZM68.0016 31.6509C68.9507 31.6639 69.9113 31.5224 70.827 31.8654C70.9166 31.8343 71.0062 31.8033 71.0959 31.7723C71.6537 31.7123 72.2241 31.7059 72.6317 31.229C73.1145 30.6625 73.78 30.6579 74.4404 30.6724C74.8577 30.6842 75.319 30.6867 75.4593 31.2112C75.5997 31.7531 75.1913 31.7671 74.8222 31.8949C74.4163 32.0354 74.7209 32.3526 74.7451 32.5931C75.0475 32.5116 75.3529 32.3364 75.6588 32.5721C77.1192 32.0665 78.672 32.9879 80.1204 32.2433C80.2997 32.1813 80.4842 32.1174 80.6634 32.0553C81.0219 31.9312 81.384 31.8175 81.7318 31.6797C82.7156 31.2813 83.2246 31.6261 83.3077 32.6336C82.6194 33.2886 82.159 34.0906 81.8417 34.9646C81.6267 35.5543 81.677 36.0579 82.4175 36.2357C82.7221 36.2287 83.0232 36.2287 83.3277 36.2217C84.0204 36.0398 84.7171 35.9375 85.4258 36.0917C85.6106 36.0798 85.8238 36.116 85.973 36.0354C86.2574 35.8848 86.5761 35.5603 86.8107 35.948C87.111 36.4403 86.5973 36.5255 86.2814 36.7044C86.0954 36.8151 85.9538 37.003 85.7892 37.1584C86.1788 37.5677 86.6291 37.4871 87.1035 37.3055C87.6815 37.0823 88.2543 36.8608 88.8931 37.1202C89.3378 37.2962 90.1425 36.6877 90.245 37.3758C90.3473 38.0467 89.53 37.6639 89.1416 37.8041C88.4406 38.0642 88.8467 38.5893 88.7503 38.9932C88.654 39.397 88.5707 39.9237 88.1346 40.0284C87.6598 40.1406 87.5936 39.6252 87.4491 39.2931L87.4455 39.2828C87.1766 39.3758 86.9078 39.4689 86.6389 39.562C85.5714 39.4799 84.5973 39.3946 84.7877 41.0191C84.8562 41.6263 83.9566 41.6367 83.4683 41.8636C82.7051 43.5983 81.5997 42.7247 80.5461 42.2732C80.0943 42.4006 79.5112 42.6604 79.3737 42.0075C79.2454 41.4151 79.8553 41.5397 80.2454 41.4047C81.0415 41.1291 81.7893 40.7313 82.5426 40.349C83.0043 40.1139 82.9743 39.7885 82.6257 39.4634C82.2619 39.5894 81.9016 39.7083 81.5361 39.829C81.2561 39.8218 80.9725 39.8041 80.689 39.8039C80.3298 39.8066 79.9757 39.7556 79.9715 39.3344C79.9675 38.9305 80.2679 38.8092 80.6588 38.8128C81.4002 38.8225 81.7365 38.515 81.4313 37.7697C80.357 36.1501 78.5832 35.6989 76.8635 35.1654C76.0988 34.4401 77.119 34.2491 77.3014 33.8039C76.5985 33.4277 75.8268 33.9612 75.1226 33.6666C73.319 34.1867 71.5815 34.2498 70.0165 33.0374C69.3904 31.8937 68.1339 32.6471 67.2827 32.1834C66.7609 32.0746 66.1471 32.1944 65.7511 31.5963C66.5443 31.1249 67.2764 31.3809 68.0102 31.6247L68.0016 31.6509ZM64.2744 38.3307C64.5763 38.1625 64.6384 37.9326 64.5698 37.6322C64.1004 37.7426 63.5271 38.1842 63.2051 37.5952C62.9703 37.1728 63.5183 36.931 63.8339 36.6828C64.1161 36.4578 63.8546 36.2993 63.7462 36.1227C63.2681 35.9524 63.2116 35.6015 63.456 35.2332C63.718 34.8473 64.0974 34.6812 64.5584 34.9384C65.6387 34.8018 67.6335 36.0449 67.4903 36.8933C67.3608 37.6618 66.3859 37.4551 65.8455 37.7869C65.462 38.1628 66.1791 38.8871 65.3988 39.1399C65.1246 39.2348 64.8557 39.3278 64.5816 39.4227C64.7034 39.4848 64.8533 39.5255 64.9401 39.6228C65.1864 39.8907 64.8713 39.9014 64.7463 39.9157C64.0654 39.9951 63.984 39.2996 63.6952 38.977C63.3072 38.5382 63.9953 38.4794 64.2726 38.3256L64.2744 38.3307ZM61.6826 47.7958C61.4453 47.8606 61.3545 47.6836 61.3059 47.492C61.2869 47.2496 61.3032 47.0067 61.5969 46.9513C61.8027 46.9148 61.9654 47.0437 61.9965 47.2529C62.0366 47.5053 61.9463 47.7219 61.6826 47.7958ZM63.9449 42.0688C64.2612 41.9593 64.5133 42.0225 64.6384 42.3497C64.7527 42.6459 64.7472 42.9199 64.3781 43.0303C64.067 43.1206 63.8022 43.0039 63.6493 42.7326C63.4679 42.4133 63.6181 42.1992 63.9396 42.0706L63.9449 42.0688ZM60.7477 38.9553C61.1524 38.9136 61.6952 38.3668 61.9067 39.0461C62.0573 39.5324 61.614 39.599 61.2044 39.405C61.0674 39.4525 60.8264 39.4896 60.8144 39.5574C60.4473 41.618 59.1072 39.6737 58.4011 40.2944C58.9415 39.3316 59.9381 39.3282 60.7477 38.9553ZM55.386 39.5319C55.656 39.0159 56.1231 39.1031 56.822 39.0927C56.4398 39.694 56.2311 40.1656 55.6131 39.847C55.5054 39.7916 55.3528 39.5897 55.3842 39.5268L55.386 39.5319ZM62.254 64.0621C62.2654 63.9077 62.3911 63.7079 62.5263 63.6379C62.751 63.5196 62.856 63.7206 62.901 63.9018C62.9533 64.1211 62.8113 64.2397 62.6251 64.3157C62.3931 64.3787 62.2357 64.2653 62.254 64.0621ZM41.055 47.9663C41.501 47.754 41.6194 48.1472 41.7179 48.4489C41.8146 48.728 42.0575 49.0376 41.6928 49.3143C41.2689 49.3858 41.0756 49.1344 40.9593 48.8157C40.8591 48.5262 40.6335 48.1643 41.055 47.9663Z" fill="#8F9700"/>
<path d="M104.09 34.3083C104.805 34.6513 105.034 34.9715 104.314 35.6202C103.801 36.0815 104.129 36.4659 104.705 36.2895C105.728 35.9701 106.095 36.4509 106.301 37.2829C106.481 37.5155 106.662 37.7481 106.843 37.9808C107.239 37.8439 107.574 37.9247 107.855 38.2267C108.432 37.8648 109.318 38.1025 109.672 37.3024C109.559 36.8207 109.806 36.5963 110.256 36.5677C110.36 36.5607 110.56 36.6768 110.571 36.7598C110.635 37.1488 110.365 37.3407 110.04 37.4763C110.18 38.0529 110.534 38.3241 111.147 38.3898C111.852 38.4642 112.541 38.6308 113.235 38.7609C113.594 38.6542 113.839 38.7661 113.972 39.1139C114.831 39.685 114.817 39.7303 113.492 40.646C114.214 40.5122 114.847 41.1495 115.646 40.711C116.008 40.5105 116.129 41.0302 116.262 41.314C116.466 41.2029 116.751 41.1391 116.862 40.9672C118.06 39.1574 119.284 39.1796 120.443 41.0594C120.413 41.3997 120.43 41.6889 120.91 41.5055C121.147 41.3194 121.383 41.1333 121.62 40.9471C121.663 40.799 121.715 40.6595 121.779 40.5214C121.555 40.3502 121.343 40.1632 121.137 39.9622C121.119 39.9452 121.102 39.9281 121.082 39.9059C120.778 39.6061 120.505 39.278 120.253 38.9253C120.232 38.8979 120.216 38.8687 120.194 38.8413C120.05 38.6306 119.91 38.4129 119.786 38.1897C119.77 38.1605 119.754 38.1313 119.738 38.1021C119.67 37.975 119.602 37.8479 119.54 37.7189C119.418 37.8597 119.316 38.0279 119.242 38.239C119.124 38.5808 118.942 39.0087 118.462 38.9372C117.995 38.8673 118.044 38.3759 117.885 38.0545C117.449 37.8003 116.965 37.956 116.506 37.9415C115.462 37.9093 114.959 37.5505 115.508 36.4748C115.566 36.3508 115.625 36.2319 115.682 36.1078C115.652 36.0199 115.621 35.932 115.591 35.8441C114.512 35.6271 114.359 35.101 114.932 34.1792C115.489 33.2802 115.572 31.833 117.252 32.525C117.506 32.6281 117.839 32.7038 117.799 33.0651C117.769 33.336 117.434 33.3245 117.273 33.4729C116.947 33.7767 115.959 33.4298 116.301 34.3999C116.998 34.6565 117.7 34.9113 118.397 35.1679C118.477 34.9204 118.608 34.7361 118.76 34.5965C118.741 34.2674 118.732 33.9348 118.741 33.6018C118.742 33.5549 118.744 33.5081 118.745 33.4613C118.754 33.1803 118.774 32.8956 118.804 32.6073C118.81 32.5414 118.819 32.4805 118.826 32.4145C118.858 32.1488 118.898 31.8741 118.943 31.6099C118.954 31.5421 118.965 31.4691 118.982 31.3994C119.043 31.0655 119.117 30.7331 119.203 30.4023C118.975 30.4929 118.741 30.5854 118.504 30.6328C118.02 30.7192 117.467 31.3217 117.077 30.8257C116.76 30.4204 117.351 30.0132 117.593 29.6224C117.707 29.4384 117.797 29.1525 117.738 28.9646C117.34 27.7129 118.168 27.5477 119.085 27.4504C120.254 26.5304 119.977 25.4396 119.502 24.3245C119.328 24.3847 119.161 24.4483 118.989 24.5137C118.751 25.3776 117.422 25.6989 117.756 26.8511C117.53 26.8827 117.3 26.9162 117.075 26.9478C117.465 28.4856 117.306 28.6392 115.676 28.3641C115.193 28.2824 114.892 28.5719 114.734 28.9855C114.579 29.3921 114.38 29.9416 113.898 29.6223C113.343 29.2471 113.773 28.8201 114.178 28.5236C114.408 28.3514 114.396 28.1298 114.344 27.8932C113.508 27.6962 112.532 28.4741 111.787 27.5856C111.562 27.6519 111.341 27.6766 111.151 27.5047C110.94 27.4737 110.728 27.4427 110.517 27.4117C110.123 27.4498 109.734 27.486 109.34 27.524C108.679 27.6777 108.25 28.486 107.433 28.1898C107.389 28.1993 107.345 28.2087 107.303 28.2233C107.345 28.2087 107.387 28.1941 107.433 28.1898C107.075 28.945 107.437 29.1554 108.155 29.1845C108.557 29.2018 109.115 29.1592 109.115 29.7729C109.116 30.2704 108.84 30.667 108.335 30.8647C107.879 31.0459 107.49 31.0995 106.985 30.8517C106.023 30.3743 105.566 30.9664 105.416 31.8462C105.363 32.154 105.626 32.4857 105.374 32.7987C105.325 32.5551 105.252 32.3605 105.154 32.2148C105.252 32.3605 105.325 32.5551 105.374 32.7987C105.483 33.9478 104.674 33.5389 104.1 33.535C103.976 33.1783 103.855 32.8267 103.731 32.47C103.855 32.8267 103.976 33.1783 104.1 33.535C103.58 33.7902 103.615 34.079 104.09 34.3083ZM113.423 37.2894C113.562 36.6507 113.94 36.3633 114.688 36.255C114.527 37.0345 114.212 37.404 113.423 37.2894ZM116.133 38.6725C116.493 38.5536 116.947 38.4313 117.085 38.8987C117.223 39.3661 116.64 39.2497 116.509 39.4513C116.085 39.5228 115.632 39.8011 115.494 39.2817C115.39 38.8952 115.827 38.7784 116.138 38.6707L116.133 38.6725ZM113.196 31.0751C112.469 30.7652 111.8 31.3558 110.996 31.2172C112.079 30.2866 112.32 30.2668 113.196 31.0751ZM113.874 31.4135C114.07 31.2645 114.353 31.3462 114.531 31.5217C114.799 31.7823 114.629 32.0262 114.472 32.2716C113.711 33.4671 112.458 33.8546 110.624 33.4183C111.467 32.322 112.866 32.1677 113.872 31.4083L113.874 31.4135ZM109.811 31.1528C110.006 31.068 110.193 31.1826 110.257 31.3687C110.334 31.591 110.157 31.7102 109.978 31.7896C109.818 31.8565 109.63 31.9794 109.499 31.7529C109.504 31.4962 109.575 31.2575 109.811 31.1528ZM111.053 34.4337C111.35 34.354 111.769 34.0642 111.91 34.4726C112.034 34.8293 112.437 35.1759 112.156 35.6263C111.908 36.0189 111.492 36.1284 111.203 35.8405C110.748 35.3959 110.365 35.8065 109.765 35.8637C110.122 35.1381 110.392 34.6047 111.058 34.4319L111.053 34.4337Z" fill="#8F9700"/>
<path d="M101.701 29.2826C101.823 29.0898 101.97 28.952 102.135 28.8486C101.97 28.952 101.823 29.0898 101.701 29.2826Z" fill="#8F9700"/>
<path d="M73.1706 60.5843C72.8631 61.0091 72.485 61.4005 72.3609 61.895C72.3035 62.0191 72.239 62.1398 72.1816 62.2639C72.239 62.1398 72.3035 62.0191 72.3609 61.895C72.485 61.4005 72.8613 61.004 73.1706 60.5843Z" fill="#8F9700"/>
<path d="M86.0883 71.5347C86.2156 71.9364 86.4552 72.2876 86.6843 72.6425C86.4552 72.2876 86.2156 71.9364 86.0883 71.5347Z" fill="#8F9700"/>
<path d="M143.092 35.9167C143.354 35.907 143.492 35.9462 143.568 36.0125C143.492 35.9462 143.354 35.907 143.092 35.9167Z" fill="#8F9700"/>
<path d="M138.955 43.3404C139.013 43.355 139.068 43.3766 139.128 43.3964C139.068 43.3766 139.013 43.355 138.955 43.3404Z" fill="#8F9700"/>
<path d="M140.719 41.9715C140.985 42.279 141.342 42.5085 141.777 42.6761C142.146 42.7512 142.486 42.7609 142.785 42.7037C142.491 42.759 142.151 42.7493 141.777 42.6761C141.342 42.5085 140.985 42.279 140.719 41.9715Z" fill="#8F9700"/>
<path d="M139.006 44.3242C139.236 44.4069 139.493 44.451 139.691 44.5793C139.727 44.6653 139.771 44.7599 139.835 44.8247C139.771 44.7599 139.732 44.6635 139.691 44.5793C139.493 44.451 139.236 44.4069 139.006 44.3242Z" fill="#8F9700"/>
<path d="M144.456 33.6498C144.468 33.9582 144.42 34.1948 144.319 34.3803C144.415 34.1966 144.47 33.9634 144.456 33.6498Z" fill="#8F9700"/>
<path d="M130.229 13.7163C130.003 13.488 129.764 13.3968 129.523 13.3992C129.764 13.3968 130.003 13.488 130.224 13.7182L130.229 13.7163Z" fill="#8F9700"/>
<path d="M128.126 12.945C127.985 12.9301 127.86 12.8924 127.744 12.8459C127.86 12.8924 127.985 12.9301 128.126 12.945Z" fill="#8F9700"/>
<path d="M124.161 51.7672C124.077 51.7791 123.998 51.8065 123.92 51.839C123.999 51.8116 124.078 51.7842 124.161 51.7672Z" fill="#8F9700"/>
<path d="M123.085 13.7293C123.017 13.2954 122.777 12.8401 122.746 12.4108C122.562 12.4746 122.382 12.5367 122.203 12.5987C122.382 12.5367 122.567 12.4728 122.746 12.4108C122.777 12.8401 123.017 13.2954 123.085 13.7293Z" fill="#8F9700"/>
<path d="M135.442 39.3813C135.341 39.3986 135.238 39.4056 135.153 39.3828C135.238 39.4056 135.343 39.4038 135.442 39.3813C135.686 39.2678 135.799 39.0665 135.743 38.8196C135.799 39.0665 135.686 39.2678 135.442 39.3813Z" fill="#8F9700"/>
<path d="M126.267 8.17011C125.394 8.88906 124.638 9.70655 123.96 10.5955C124.632 9.70837 125.394 8.88906 126.267 8.17011Z" fill="#8F9700"/>
<path d="M117.592 16.3833C117.374 16.5223 117.164 16.682 116.941 16.8054C116.801 16.6744 116.647 16.554 116.483 16.5065C116.647 16.554 116.801 16.6744 116.941 16.8054C117.164 16.682 117.374 16.5223 117.592 16.3833Z" fill="#8F9700"/>
<path d="M117.865 18.5871C117.81 18.6348 117.758 18.6878 117.717 18.7422C117.763 18.6859 117.81 18.6348 117.865 18.5871Z" fill="#8F9700"/>
<path d="M122.466 43.3577C122.527 43.5335 122.588 43.7092 122.649 43.885C122.714 43.8336 122.775 43.8065 122.833 43.7865C122.775 43.8065 122.715 43.8388 122.649 43.885C122.588 43.7092 122.527 43.5335 122.466 43.3577Z" fill="#8F9700"/>
<path d="M124.063 50.597C124.093 50.6849 124.124 50.7728 124.154 50.8607C124.234 50.8506 124.316 50.8336 124.394 50.8184C124.309 50.8303 124.232 50.8455 124.154 50.8607C124.124 50.7728 124.093 50.6849 124.063 50.597Z" fill="#8F9700"/>
<path d="M122.781 42.6987C122.791 42.591 122.771 42.4822 122.744 42.37C122.875 42.2203 122.996 42.109 123.116 42.0445C122.998 42.1142 122.875 42.2203 122.744 42.37C122.776 42.4803 122.791 42.591 122.781 42.6987Z" fill="#8F9700"/>
</g>
<defs>
<clipPath id="clip0_404_65271">
<rect width="158.045" height="56.1938" fill="white" transform="translate(167.732 53.1022) rotate(160.906)"/>
</clipPath>
</defs>
</svg>
